<svg width="20" height="20" viewBox="0 0 20 20" fill="none" xmlns="http://www.w3.org/2000/svg">
<path d="M17.6562 1.5625H16.7188V0H15.1562V1.5625H4.84375V0H3.28125V1.5625H2.34375C1.05141 1.5625 0 2.61391 0 3.90625V17.6562C0 18.9486 1.05141 20 2.34375 20H17.6562C18.9486 20 20 18.9486 20 17.6562V3.90625C20 2.61391 18.9486 1.5625 17.6562 1.5625ZM18.4375 17.6562C18.4375 18.087 18.087 18.4375 17.6562 18.4375H2.34375C1.91297 18.4375 1.5625 18.087 1.5625 17.6562V7.34375H18.4375V17.6562ZM18.4375 5.78125H1.5625V3.90625C1.5625 3.47547 1.91297 3.125 2.34375 3.125H3.28125V4.6875H4.84375V3.125H15.1562V4.6875H16.7188V3.125H17.6562C18.087 3.125 18.4375 3.47547 18.4375 3.90625V5.78125Z" fill="white"/>
<path d="M4.53119 8.98442H2.96869V10.5469H4.53119V8.98442Z" fill="white"/>
<path d="M7.65637 8.98442H6.09387V10.5469H7.65637V8.98442Z" fill="white"/>
<path d="M10.7811 8.98442H9.21863V10.5469H10.7811V8.98442Z" fill="white"/>
<path d="M13.9063 8.98442H12.3438V10.5469H13.9063V8.98442Z" fill="white"/>
<path d="M17.031 8.98442H15.4685V10.5469H17.031V8.98442Z" fill="white"/>
<path d="M4.53119 12.1094H2.96869V13.6719H4.53119V12.1094Z" fill="white"/>
<path d="M7.65637 12.1094H6.09387V13.6719H7.65637V12.1094Z" fill="white"/>
<path d="M10.7811 12.1094H9.21863V13.6719H10.7811V12.1094Z" fill="white"/>
<path d="M13.9063 12.1094H12.3438V13.6719H13.9063V12.1094Z" fill="white"/>
<path d="M4.53119 15.2344H2.96869V16.7969H4.53119V15.2344Z" fill="white"/>
<path d="M7.65637 15.2344H6.09387V16.7969H7.65637V15.2344Z" fill="white"/>
<path d="M10.7811 15.2344H9.21863V16.7969H10.7811V15.2344Z" fill="white"/>
<path d="M13.9063 15.2344H12.3438V16.7969H13.9063V15.2344Z" fill="white"/>
<path d="M17.031 12.1094H15.4685V13.6719H17.031V12.1094Z" fill="white"/>
</svg>
