<svg width="29" height="28" viewBox="0 0 29 28" fill="none" xmlns="http://www.w3.org/2000/svg">
<path d="M17.8847 10.9139C17.553 10.5802 17.1852 10.2845 16.7881 10.032C15.7363 9.35867 14.5137 9.00087 13.2648 9.00087C11.5314 8.99764 9.8684 9.68624 8.64484 10.9139L2.70892 16.8534C1.48744 18.077 0.8009 19.7349 0.799806 21.4636C0.797509 25.0712 3.72062 27.9976 7.32886 27.9999C9.05958 28.0059 10.721 27.3206 11.9441 26.0963L16.8441 21.1972C16.9331 21.109 16.9828 20.9886 16.9821 20.8632C16.9806 20.6055 16.7705 20.3979 16.5127 20.3994H16.3261C15.3023 20.403 14.2877 20.2064 13.3395 19.8208C13.1648 19.7489 12.9639 19.7895 12.8308 19.9234L9.30753 23.4508C8.21347 24.5446 6.43965 24.5446 5.34559 23.4508C4.25152 22.3569 4.25152 20.5834 5.34559 19.4895L11.3049 13.536C12.398 12.4444 14.169 12.4444 15.2622 13.536C15.9989 14.2293 17.1481 14.2293 17.8848 13.536C18.2017 13.2188 18.3939 12.7981 18.4261 12.3509C18.4602 11.8164 18.263 11.293 17.8847 10.9139Z" fill="white"/>
<path d="M26.8858 1.9133C24.3343 -0.637768 20.1975 -0.637768 17.646 1.9133L12.7507 6.80303C12.6163 6.93808 12.5775 7.1412 12.6527 7.31628C12.727 7.49185 12.9007 7.60454 13.0913 7.60087H13.264C14.2865 7.59902 15.2995 7.79711 16.2459 8.18412C16.4207 8.25602 16.6215 8.21545 16.7546 8.08149L20.2685 4.5728C21.3626 3.47893 23.1364 3.47893 24.2305 4.5728C25.3245 5.66667 25.3245 7.44018 24.2305 8.53405L19.8532 12.9059L19.8158 12.9479L18.2852 14.4689C17.192 15.5606 15.4211 15.5606 14.3279 14.4689C13.5912 13.7757 12.442 13.7757 11.7053 14.4689C11.3863 14.7885 11.194 15.2129 11.164 15.6633C11.1298 16.1978 11.327 16.7212 11.7053 17.1004C12.2454 17.6428 12.8774 18.0851 13.5719 18.4068C13.6699 18.4535 13.7679 18.4908 13.8659 18.5328C13.9639 18.5748 14.0666 18.6074 14.1646 18.6448C14.2626 18.6821 14.3652 18.7148 14.4632 18.7428L14.7386 18.8174C14.9252 18.864 15.1119 18.9014 15.3032 18.934C15.5336 18.9683 15.7657 18.9901 15.9985 18.9994H16.3252H16.3532L16.6332 18.9667C16.7358 18.9621 16.8432 18.9387 16.9645 18.9387H17.1232L17.4452 18.8921L17.5945 18.8641L17.8652 18.8081H17.9165C19.0628 18.5202 20.1095 17.9268 20.9451 17.0911L26.8857 11.1516C29.4374 8.60048 29.4374 4.46438 26.8858 1.9133Z" fill="white"/>
</svg>
