<svg width="19" height="18" viewBox="0 0 19 18" fill="none" xmlns="http://www.w3.org/2000/svg">
<path d="M9.3878 16.65C9.35841 16.575 9.34829 16.5113 9.35826 16.4597C9.36818 16.4085 9.33401 16.366 9.25566 16.3333C9.17731 16.3006 9.13821 16.2746 9.13821 16.2561C9.13821 16.2374 9.08206 16.2233 8.96949 16.214C8.85698 16.2046 8.80082 16.1998 8.80082 16.1998H8.61022H8.44889H4.2244C3.579 16.1998 3.02645 15.9797 2.56678 15.5388C2.10721 15.0981 1.87746 14.5686 1.87746 13.9499V4.04975C1.87746 3.43101 2.10716 2.90146 2.56678 2.46083C3.02645 2.02014 3.579 1.79973 4.2244 1.79973H8.91822C9.04538 1.79973 9.14536 1.76949 9.21888 1.70841C9.29209 1.64748 9.34089 1.55602 9.36545 1.43416C9.38991 1.3123 9.40465 1.20227 9.40959 1.1038C9.41442 1.00544 9.41205 0.881123 9.40219 0.731141C9.39248 0.581209 9.3876 0.487477 9.3876 0.449797C9.3876 0.32794 9.3411 0.222682 9.24826 0.133432C9.15532 0.0445758 9.04538 0 8.91827 0H4.2244C3.06082 0 2.06575 0.396109 1.23936 1.18828C0.413171 1.98045 0 2.93427 0 4.04989V13.9499C0 15.0654 0.413171 16.0195 1.23936 16.8113C2.06575 17.6039 3.06082 18 4.2244 18H8.91843C9.04558 18 9.14561 17.9694 9.21908 17.9087C9.29229 17.8477 9.3411 17.7563 9.36566 17.6343C9.39011 17.5126 9.40486 17.402 9.40979 17.3039C9.41462 17.2055 9.41226 17.0814 9.40239 16.9314C9.39258 16.7813 9.3878 16.6876 9.3878 16.65Z" fill="#5C5C5C"/>
<path d="M18.7914 8.48187L12.8185 2.21872C12.6795 2.07307 12.5147 2 12.3244 2C12.1341 2 11.9694 2.07307 11.8302 2.21872C11.6911 2.36457 11.6216 2.53744 11.6216 2.73689V6.05261H6.70276C6.51232 6.05261 6.34769 6.12567 6.20859 6.27133C6.06949 6.41718 6 6.58993 6 6.78949V11.2105C6 11.41 6.06949 11.5828 6.20859 11.7286C6.34784 11.8741 6.51244 11.9474 6.70276 11.9474H11.6217V15.2631C11.6217 15.4625 11.6912 15.6354 11.8303 15.7811C11.9694 15.927 12.1341 16 12.3245 16C12.5147 16 12.6795 15.927 12.8185 15.7811L18.7914 9.51825C18.9305 9.37228 19 9.19977 19 9.00016C19 8.80064 18.9305 8.62772 18.7914 8.48187Z" fill="#5C5C5C"/>
</svg>
