<svg width="15" height="27" viewBox="0 0 15 27" fill="none" xmlns="http://www.w3.org/2000/svg">
<path d="M14.4348 0.0056178L10.837 0C6.79494 0 4.1828 2.60806 4.1828 6.64474V9.7084H0.565356C0.252766 9.7084 -0.000366211 9.95503 -0.000366211 10.2592V14.6981C-0.000366211 15.0023 0.253054 15.2487 0.565356 15.2487H4.1828V26.4495C4.1828 26.7537 4.43593 27 4.74852 27H9.46826C9.78085 27 10.034 26.7534 10.034 26.4495V15.2487H14.2636C14.5762 15.2487 14.8293 15.0023 14.8293 14.6981L14.8311 10.2592C14.8311 10.1132 14.7713 9.97328 14.6654 9.86992C14.5595 9.76655 14.4152 9.7084 14.2651 9.7084H10.034V7.11129C10.034 5.86302 10.3396 5.22933 12.0105 5.22933L14.4342 5.22849C14.7465 5.22849 14.9996 4.98187 14.9996 4.67794V0.556162C14.9996 0.25252 14.7468 0.00617958 14.4348 0.0056178Z" fill="#2B2B2B"/>
</svg>
