<svg width="24" height="24" viewBox="0 0 24 24" fill="none" xmlns="http://www.w3.org/2000/svg">
<path d="M22.9078 5.50008H17.8026C18.5037 6.12663 19.1032 6.86093 19.5729 7.68152H22.9078C23.5103 7.68152 23.9989 7.19335 23.9989 6.5908C23.9989 5.98876 23.5103 5.50008 22.9078 5.50008Z" fill="white"/>
<path d="M22.9078 8.2509H19.8676C20.1954 8.93516 20.4374 9.66537 20.5778 10.4323H22.9078C23.5103 10.4323 23.999 9.94418 23.999 9.34162C23.999 8.73907 23.5103 8.2509 22.9078 8.2509Z" fill="white"/>
<path d="M22.9078 2.75029H14.8324C14.3621 2.75029 13.9664 3.0485 13.8122 3.46416C15.0198 3.7205 16.1309 4.23216 17.099 4.93174H22.9083C23.5114 4.93174 24 4.44357 24 3.84101C24 3.23846 23.5103 2.75029 22.9078 2.75029Z" fill="white"/>
<path d="M14.8323 2.18145H22.9077C23.5103 2.18145 23.9989 1.69328 23.9989 1.09072C23.9989 0.488681 23.5103 0 22.9077 0H14.8323C14.2293 0 13.7411 0.488681 13.7411 1.09123C13.7411 1.69379 14.2293 2.18145 14.8323 2.18145Z" fill="white"/>
<path d="M22.9078 11.0002H20.6647C20.702 11.329 20.726 11.6614 20.726 12C20.726 12.4014 20.6897 12.7951 20.6366 13.1816H22.9073C23.5098 13.1816 23.9985 12.6929 23.9985 12.0904C23.9985 11.4878 23.5103 11.0002 22.9078 11.0002Z" fill="white"/>
<path d="M22.9078 13.7505H20.5493C20.3915 14.5215 20.126 15.2507 19.7793 15.9319H22.9078C23.5104 15.9319 23.999 15.4437 23.999 14.8412C23.999 14.2386 23.5104 13.7505 22.9078 13.7505Z" fill="white"/>
<path d="M22.9078 16.5003H19.4621C18.9623 17.326 18.3368 18.0643 17.601 18.6817H22.9078C23.5103 18.6817 23.999 18.1935 23.999 17.591C23.999 16.9884 23.5103 16.5003 22.9078 16.5003Z" fill="white"/>
<path d="M1.09119 12.9998H3.33433C3.29654 12.671 3.27254 12.3386 3.27254 12C3.27254 11.5986 3.30931 11.2055 3.3619 10.8184H1.09119C0.48866 10.8189 0 11.3071 0 11.9096C0 12.5117 0.48866 12.9998 1.09119 12.9998Z" fill="white"/>
<path d="M1.09119 15.7501H4.1314C3.80409 15.0659 3.56155 14.3357 3.42113 13.5692H1.09119C0.48866 13.5692 0 14.0568 0 14.6594C0 15.2619 0.48866 15.7501 1.09119 15.7501Z" fill="white"/>
<path d="M1.09119 10.25H3.44973C3.607 9.47948 3.87303 8.74978 4.21922 8.06859H1.09119C0.48866 8.06808 0 8.55625 0 9.15931C0 9.76238 0.48866 10.25 1.09119 10.25Z" fill="white"/>
<path d="M1.09119 7.50026H4.53683C5.03672 6.67507 5.66223 5.93618 6.39752 5.31882H1.09119C0.48866 5.31882 0 5.80699 0 6.40903C0 7.01158 0.48866 7.50026 1.09119 7.50026Z" fill="white"/>
<path d="M1.09119 18.4999H6.19633C5.49526 17.8734 4.89579 17.1396 4.42602 16.319H1.09119C0.48866 16.319 0 16.8072 0 17.4092C0 18.0123 0.48866 18.4999 1.09119 18.4999Z" fill="white"/>
<path d="M1.09119 21.2502H9.16659C9.63687 21.2502 10.0331 20.952 10.1868 20.5363C8.97919 20.28 7.86809 19.7683 6.90047 19.0688H1.09119C0.48866 19.0683 0 19.5564 0 20.1595C0 20.762 0.48866 21.2502 1.09119 21.2502Z" fill="white"/>
<path d="M9.16659 21.8191H1.09119C0.48866 21.8191 0 22.3067 0 22.9098C0 23.5118 0.48866 24 1.09119 24H9.16659C9.76963 24 10.2578 23.5113 10.2578 22.9088C10.2578 22.3062 9.76963 21.8191 9.16659 21.8191Z" fill="white"/>
<path d="M11.9994 4.36391C7.78886 4.36391 4.36365 7.78927 4.36365 12C4.36365 16.2107 7.78886 19.6366 11.9994 19.6366C16.21 19.6366 19.6352 16.2112 19.6352 12C19.6352 7.78876 16.21 4.36391 11.9994 4.36391ZM11.9994 17.4546C8.99188 17.4546 6.545 15.0082 6.545 12C6.545 8.99233 8.99188 6.54535 11.9994 6.54535C15.0075 6.54535 17.4538 8.99233 17.4538 12C17.4538 15.0082 15.0075 17.4546 11.9994 17.4546Z" fill="white"/>
<path d="M12.3176 11.2631V9.37787C13.4154 9.39829 13.4072 10.4594 14.0516 10.4594C14.3886 10.4594 14.6782 10.2322 14.6782 9.8451C14.6782 8.87285 13.0907 8.38723 12.3176 8.36681V7.83829C12.3176 7.66927 12.1879 7.50076 12.0184 7.50076C11.8509 7.50076 11.7227 7.66927 11.7227 7.83829V8.36681C10.4829 8.4051 9.36162 9.1011 9.36162 10.4492C9.36162 11.5506 10.2521 12.1956 11.7227 12.4626V14.5363C10.0739 14.4669 10.9379 13.0979 9.8268 13.0979C9.452 13.0979 9.21252 13.3271 9.21252 13.7229C9.21252 14.5072 10.0464 15.5091 11.7227 15.55V16.1637C11.7227 16.3323 11.8509 16.5008 12.0184 16.5008C12.1879 16.5008 12.3176 16.3323 12.3176 16.1637V15.55C13.7948 15.4606 14.7864 14.785 14.7864 13.4558C14.7864 11.9275 13.6273 11.5414 12.3176 11.2631ZM11.7227 11.1544C10.9787 11.0048 10.6096 10.7183 10.6096 10.2209C10.6096 9.79506 11.0461 9.39778 11.7227 9.37736V11.1544ZM12.3176 14.5358V12.5719C12.8517 12.6899 13.5385 12.8885 13.5385 13.5625C13.5385 14.2172 12.9119 14.4965 12.3176 14.5358Z" fill="white"/>
</svg>
