<svg width="34" height="35" viewBox="0 0 34 35" fill="none" xmlns="http://www.w3.org/2000/svg">
<path d="M18.8411 30.639C18.5743 31.0111 18.1837 31.2813 17.7384 31.4027L15.5235 31.9995C15.3496 32.0481 15.1702 32.0731 14.9892 32.0731C14.5811 32.0731 14.1866 31.9502 13.8539 31.7191C13.3657 31.3839 13.0593 30.8552 13.0108 30.2827L12.8163 28.0262C12.7703 27.5633 12.8965 27.0996 13.1633 26.7268L13.245 26.6109H5.34438C4.70689 26.6109 4.19008 26.0924 4.19008 25.4651C4.19008 24.8353 4.70689 24.3168 5.34438 24.3168H14.9074L17.0445 21.3053H5.34438C4.70689 21.3053 4.19008 20.7868 4.19008 20.1579C4.19008 19.529 4.70689 19.0105 5.34438 19.0105L18.6902 18.9768L23.6948 11.8972V6.65511C23.6948 5.79356 23.0192 5.09805 22.1484 5.09805H18.3171V8.08919C18.3171 9.50135 17.1469 10.6182 15.718 10.6182H8.0126C6.58044 10.6182 5.45076 9.50056 5.45076 8.08919V5.09805H1.57823C0.705756 5.09805 0 5.79434 0 6.65511V33.4046C0 34.2662 0.70655 35 1.57823 35H22.1468C23.02 35 23.694 34.2654 23.694 33.4046V23.8399L18.8411 30.639ZM5.34438 13.7034H18.383C19.0189 13.7034 19.5365 14.2211 19.5365 14.85C19.5365 15.4789 19.0189 15.9974 18.383 15.9974H5.34438C4.70689 15.9974 4.19008 15.4789 4.19008 14.85C4.19008 14.2211 4.70689 13.7034 5.34438 13.7034Z" fill="white"/>
<path d="M8.03424 9.11361H15.7325C16.3152 9.11361 16.7891 8.64681 16.7891 8.07036V3.70231C16.7891 3.12585 16.3152 2.65905 15.7325 2.65905H14.5726C14.5647 1.1905 13.3548 0 11.8631 0C10.3706 0 9.16234 1.18972 9.15361 2.65905H8.03424C7.44995 2.65905 6.97759 3.12585 6.97759 3.70231V8.06957C6.97759 8.64603 7.44995 9.11361 8.03424 9.11361ZM11.8639 1.48108C12.5268 1.48108 13.0642 2.00741 13.0714 2.65983H10.654C10.662 2.00741 11.2002 1.48108 11.8639 1.48108Z" fill="white"/>
<path d="M33.4333 7.03182C33.3975 6.83758 33.2856 6.66762 33.122 6.55483L31.1945 5.22961C31.0643 5.13954 30.9143 5.09647 30.7666 5.09647C30.5316 5.09647 30.2974 5.20612 30.1537 5.41211L16.4999 24.7288L19.6539 26.8991L33.3094 7.58321C33.4221 7.42265 33.4674 7.22449 33.4333 7.03182Z" fill="white"/>
<path d="M14.3495 27.8828L14.5472 30.1511C14.5567 30.2819 14.6274 30.3986 14.7346 30.4738C14.8108 30.5254 14.9005 30.5552 14.9894 30.5552C15.0283 30.5552 15.068 30.5497 15.1061 30.5388L17.3329 29.9372C17.4337 29.9098 17.5211 29.8487 17.5814 29.7649L18.4173 28.5823L15.2609 26.4112L14.4249 27.5938C14.3662 27.6776 14.3384 27.7802 14.3495 27.8828Z" fill="white"/>
</svg>
