<svg width="35" height="35" viewBox="0 0 35 35" fill="none" xmlns="http://www.w3.org/2000/svg">
<path d="M30.8324 6.97883C30.8324 6.35556 30.1916 6.17387 29.6926 6.06366V7.87614C30.2489 7.8389 30.8324 7.58125 30.8324 6.97883Z" fill="white"/>
<path d="M29.1359 3.11633C28.5058 3.1342 28.0972 3.50132 28.0972 3.89449C28.0972 4.35245 28.4425 4.61755 29.1367 4.75456L29.1359 3.11633Z" fill="white"/>
<path d="M29.3965 11.0707C32.487 11.0707 35.0001 8.58729 35.0001 5.53572C35.0001 2.48415 32.4862 0 29.3965 0C26.3052 0 23.7913 2.4834 23.7913 5.53572C23.7913 8.58729 26.3052 11.0707 29.3965 11.0707ZM26.9323 4.10451C26.9323 2.86094 27.9793 2.21831 29.1372 2.18257V1.69557C29.1372 1.53844 29.257 1.38356 29.4138 1.38356C29.5721 1.38356 29.6927 1.53844 29.6927 1.69557V2.18257C30.4141 2.20118 31.8983 2.64872 31.8983 3.54751C31.8983 3.90419 31.6284 4.11419 31.3141 4.11419C30.7103 4.11419 30.7201 3.13497 29.6935 3.11636V4.85586C30.9176 5.11202 32 5.46945 32 6.87907C32 8.10476 31.0736 8.72803 29.6935 8.81069V9.37662C29.6935 9.533 29.5728 9.68863 29.4146 9.68863C29.2578 9.68863 29.1379 9.533 29.1379 9.37662V8.81069C27.5723 8.77271 26.7944 7.8486 26.7944 7.1248C26.7944 6.75992 27.0175 6.54844 27.368 6.54844C28.406 6.54844 27.5994 7.81137 29.1387 7.87615V5.9624C27.7645 5.71518 26.9323 5.12095 26.9323 4.10451Z" fill="white"/>
<path d="M6.83684 24.6576H2.00584C1.11637 24.6576 0.395752 25.3702 0.395752 26.2489V33.4072C0.396506 34.2874 1.11788 34.9985 2.00584 34.9985H6.83684C7.72631 34.9985 8.44693 34.2874 8.44693 33.4072V26.2489C8.44768 25.3702 7.72706 24.6576 6.83684 24.6576Z" fill="white"/>
<path d="M19.323 19.0906H14.492C13.6026 19.0906 12.882 19.8032 12.882 20.6819V33.4087C12.882 34.2889 13.6033 35 14.492 35H19.323C20.2125 35 20.9339 34.2889 20.9339 33.4087V20.6797C20.9339 19.8032 20.2133 19.0906 19.323 19.0906Z" fill="white"/>
<path d="M31.8104 12.7267H26.9802C26.0899 12.7267 25.3693 13.4394 25.3693 14.3173V33.4071C25.3693 34.2873 26.0907 34.9985 26.9802 34.9985H31.8104C32.7006 34.9985 33.4213 34.2873 33.4213 33.4071V14.3181C33.422 13.4394 32.7006 12.7267 31.8104 12.7267Z" fill="white"/>
<path d="M22.154 8.17029L18.1552 7.34448C17.8492 7.28193 17.5341 7.39884 17.3464 7.64531C17.1587 7.89254 17.1331 8.22391 17.2801 8.49719L18.1665 10.1436L0.435992 19.1784C0.0410092 19.3802 -0.11427 19.8605 0.0900052 20.2492C0.233224 20.5225 0.514386 20.6797 0.806101 20.6797C0.930475 20.6797 1.05636 20.6521 1.1747 20.591L18.9218 11.5473L19.7351 13.0574C19.8753 13.3181 20.149 13.4796 20.446 13.4796C20.4595 13.4796 20.4723 13.4789 20.4867 13.4782C20.7987 13.4625 21.0739 13.2704 21.1915 12.9844L22.736 9.2478C22.8264 9.02887 22.8143 8.78239 22.7013 8.57389C22.5875 8.36762 22.3877 8.21944 22.154 8.17029Z" fill="white"/>
</svg>
