<svg width="35" height="35" viewBox="0 0 35 35" fill="none" xmlns="http://www.w3.org/2000/svg">
<path d="M29.7363 17.8224H35V11.3807H2.05078C1.3004 11.3807 0.605664 11.1534 0 10.7835V29.632C0 32.5918 2.30009 35 5.12695 35H35V28.5584H29.7363C26.9095 28.5584 24.6094 26.1501 24.6094 23.1904C24.6094 20.2306 26.9095 17.8224 29.7363 17.8224ZM17.4316 22.1168C19.1279 22.1168 20.5078 23.5615 20.5078 25.3376C20.5078 26.7354 19.648 27.9159 18.457 28.3606V30.7056H16.4062V28.3606C15.2153 27.9159 14.3555 26.7354 14.3555 25.3376H16.4062C16.4062 25.9299 16.8659 26.4112 17.4316 26.4112C17.9974 26.4112 18.457 25.9299 18.457 25.3376C18.457 24.7452 17.9974 24.264 17.4316 24.264C15.7354 24.264 14.3555 22.8192 14.3555 21.0432C14.3555 19.6453 15.2153 18.4648 16.4062 18.0201V15.6752H18.457V18.0201C19.648 18.4648 20.5078 19.6453 20.5078 21.0432H18.457C18.457 20.4508 17.9974 19.9696 17.4316 19.9696C16.8659 19.9696 16.4062 20.4508 16.4062 21.0432C16.4062 21.6355 16.8659 22.1168 17.4316 22.1168Z" fill="white"/>
<path d="M29.7363 19.9696C28.0401 19.9696 26.6602 21.4144 26.6602 23.1904C26.6602 24.9664 28.0401 26.4112 29.7363 26.4112H35V19.9696H29.7363ZM30.7617 24.264H28.7109V22.1168H30.7617V24.264Z" fill="white"/>
<path d="M13.3302 0L6.27576 9.23355H20.3846L13.3302 0Z" fill="white"/>
<path d="M21.5333 0L18.7451 3.64974L23.0117 9.23355H28.5877L21.5333 0Z" fill="white"/>
<path d="M27.9333 4.93906L31.2148 9.23346H32.8125V4.93906H27.9333Z" fill="white"/>
<path d="M2.05078 4.93912C0.918135 4.93912 0 5.90042 0 7.08632C0 8.27215 0.918135 9.23352 2.05078 9.23352H3.64848L6.92993 4.93912H2.05078Z" fill="white"/>
</svg>
