<svg width="21" height="35" viewBox="0 0 21 35" fill="none" xmlns="http://www.w3.org/2000/svg">
<path d="M5.82556 34.2182C5.82556 34.6482 6.17755 35 6.60775 35H18.1685C18.5987 35 18.9507 34.6482 18.9507 34.2182V32.428H5.82556V34.2182Z" fill="white"/>
<path d="M5.56331 12.6217L5.56726 6.90306C5.56726 6.24246 5.81752 5.62486 6.27515 5.16361C6.78357 4.65546 7.51101 4.3662 8.27755 4.3662C8.87593 4.3662 9.45084 4.54992 9.89665 4.87827C10.4364 5.27697 10.7727 5.87894 10.8431 6.5669C10.8431 6.58253 11.1521 9.565 11.4297 12.2348C13.3735 11.0934 14.6837 8.98258 14.6837 6.5669C14.6837 2.93947 11.7426 0 8.11325 0C4.48389 0 1.54285 2.93947 1.54285 6.5669C1.53894 9.28747 3.19719 11.625 5.56331 12.6217Z" fill="white"/>
<path d="M21 20.0838C21 19.3216 20.5111 18.6453 19.7837 18.4108C17.6131 17.7033 13.2329 16.2922 12.564 16.1593C12.3568 16.1202 12.1534 16.1006 11.9578 16.1006C11.4299 16.1006 10.9684 16.2453 10.6907 16.4915H10.6868C10.6868 16.4915 10.6868 16.4915 10.6868 16.4876C10.6829 16.4563 9.67388 6.70372 9.67388 6.68809C9.59171 5.90632 8.94254 5.53497 8.27372 5.53497C7.51504 5.53497 6.73285 6.01185 6.73672 6.89917L6.7289 22.7028C6.7289 22.8903 6.59201 23.0467 6.40429 23.0741C6.40038 23.0741 6.40038 23.0741 6.39647 23.0741C6.38086 23.078 6.36131 23.078 6.34562 23.078C6.34171 23.078 6.3378 23.078 6.33389 23.078C5.802 23.0624 4.60134 23.0467 3.43197 21.3542C3.27553 21.1314 3.13473 20.9281 3.00567 20.7405C2.59893 20.158 2.05531 19.9079 1.54298 19.9079C0.643457 19.9079 -0.16611 20.6857 0.0294371 21.8467C0.311026 23.5392 2.16482 27.4833 5.81765 31.1811H18.9428L20.2686 28.9413C20.7418 28.1478 20.9921 27.241 20.9921 26.3145L21 20.0838Z" fill="white"/>
</svg>
