<svg width="35" height="35" viewBox="0 0 35 35" fill="none" xmlns="http://www.w3.org/2000/svg">
<path d="M12.364 19.3093C12.364 18.8709 12.0084 18.5157 11.5696 18.5157H8.79735C8.35905 18.5157 8.00336 18.8709 8.00336 19.3093V22.0812C8.00336 22.5202 8.35905 22.8755 8.79735 22.8755H11.5696C12.0084 22.8755 12.364 22.5202 12.364 22.0812V19.3093Z" fill="white"/>
<path d="M19.2922 19.3093C19.2922 18.8709 18.9365 18.5157 18.4985 18.5157H15.7259C15.2876 18.5157 14.9319 18.8709 14.9319 19.3093V22.0812C14.9319 22.5202 15.2876 22.8755 15.7259 22.8755H18.4985C18.9365 22.8755 19.2922 22.5202 19.2922 22.0812V19.3093Z" fill="white"/>
<path d="M26.2208 19.3093C26.2208 18.8709 25.8651 18.5157 25.4268 18.5157H22.6546C22.2158 18.5157 21.8602 18.8709 21.8602 19.3093V22.0812C21.8602 22.5202 22.2158 22.8755 22.6546 22.8755H25.4268C25.8651 22.8755 26.2208 22.5202 26.2208 22.0812V19.3093Z" fill="white"/>
<path d="M12.364 26.2382C12.364 25.799 12.0084 25.4441 11.5696 25.4441H8.79735C8.35905 25.4441 8.00336 25.799 8.00336 26.2382V29.0095C8.00336 29.4483 8.35905 29.8035 8.79735 29.8035H11.5696C12.0084 29.8035 12.364 29.4482 12.364 29.0095V26.2382Z" fill="white"/>
<path d="M19.2922 26.2382C19.2922 25.799 18.9365 25.4441 18.4985 25.4441H15.7259C15.2876 25.4441 14.9319 25.799 14.9319 26.2382V29.0095C14.9319 29.4483 15.2876 29.8035 15.7259 29.8035H18.4985C18.9365 29.8035 19.2922 29.4482 19.2922 29.0095V26.2382Z" fill="white"/>
<path d="M26.2208 26.2382C26.2208 25.799 25.8651 25.4441 25.4272 25.4441H22.6546C22.2158 25.4441 21.8602 25.799 21.8602 26.2382V29.0095C21.8602 29.4483 22.2158 29.8035 22.6546 29.8035H25.4272C25.8651 29.8035 26.2208 29.4482 26.2208 29.0095V26.2382Z" fill="white"/>
<path d="M31.1777 3.8971V8.13091C31.1777 10.0446 29.6253 11.5867 27.712 11.5867H25.5256C23.6121 11.5867 22.0391 10.0446 22.0391 8.13091V3.8819H12.1849V8.13091C12.1849 10.0446 10.6119 11.5867 8.69872 11.5867H6.51197C4.59869 11.5867 3.04634 10.0446 3.04634 8.13091V3.8971C1.37411 3.9475 0 5.33122 0 7.03199V31.8442C0 33.5769 1.40444 35 3.13718 35H31.0868C32.817 35 34.224 33.574 34.224 31.8442V7.03199C34.224 5.33122 32.85 3.9475 31.1777 3.8971ZM30.1623 30.299C30.1623 31.0479 29.5551 31.6554 28.806 31.6554H5.35827C4.60916 31.6554 4.00201 31.0479 4.00201 30.299V17.4827C4.00201 16.7336 4.60909 16.126 5.35827 16.126H28.8059C29.555 16.126 30.1622 16.7336 30.1622 17.4827L30.1623 30.299Z" fill="white"/>
<path d="M6.50424 9.31691H8.66682C9.32322 9.31691 9.85544 8.78547 9.85544 8.12907V1.18826C9.85544 0.53179 9.32322 0 8.66682 0H6.50424C5.84776 0 5.31561 0.53179 5.31561 1.18826V8.12907C5.31561 8.78547 5.84776 9.31691 6.50424 9.31691Z" fill="white"/>
<path d="M25.4979 9.31691H27.6605C28.3164 9.31691 28.8487 8.78547 28.8487 8.12907V1.18826C28.8487 0.53179 28.3165 0 27.6605 0H25.4979C24.8415 0 24.3093 0.53179 24.3093 1.18826V8.12907C24.3093 8.78547 24.8415 9.31691 25.4979 9.31691Z" fill="white"/>
</svg>
