<svg width="27" height="27" viewBox="0 0 27 27" fill="none" xmlns="http://www.w3.org/2000/svg">
<path d="M19.5486 0H7.45055C3.34212 0 -0.000366211 3.34265 -0.000366211 7.45109V19.5491C-0.000366211 23.6577 3.34212 27.0002 7.45055 27.0002H19.5486C23.6574 27.0002 26.9998 23.6576 26.9998 19.5491V7.45109C27 3.34265 23.6574 0 19.5486 0ZM24.6044 19.5491C24.6044 22.3368 22.3364 24.6046 19.5488 24.6046H7.45055C4.66305 24.6048 2.39522 22.3368 2.39522 19.5491V7.45109C2.39522 4.66358 4.66305 2.39559 7.45055 2.39559H19.5486C22.3363 2.39559 24.6042 4.66358 24.6042 7.45109V19.5491H24.6044Z" fill="#2B2B2B"/>
<path d="M13.5004 6.54321C9.66406 6.54321 6.54309 9.66419 6.54309 13.5005C6.54309 17.3366 9.66406 20.4574 13.5004 20.4574C17.3367 20.4574 20.4576 17.3366 20.4576 13.5005C20.4576 9.66419 17.3367 6.54321 13.5004 6.54321ZM13.5004 18.0617C10.9852 18.0617 8.93868 16.0155 8.93868 13.5003C8.93868 10.985 10.985 8.93864 13.5004 8.93864C16.0157 8.93864 18.062 10.985 18.062 13.5003C18.062 16.0155 16.0156 18.0617 13.5004 18.0617Z" fill="#2B2B2B"/>
<path d="M20.7491 4.51205C20.2875 4.51205 19.8341 4.69891 19.5082 5.02631C19.1806 5.35211 18.9923 5.80567 18.9923 6.26882C18.9923 6.73053 19.1808 7.18394 19.5082 7.51133C19.834 7.83714 20.2875 8.02559 20.7491 8.02559C21.2122 8.02559 21.6642 7.83714 21.9916 7.51133C22.319 7.18394 22.5058 6.73037 22.5058 6.26882C22.5058 5.80567 22.319 5.35211 21.9916 5.02631C21.6658 4.69891 21.2122 4.51205 20.7491 4.51205Z" fill="#2B2B2B"/>
</svg>
