<svg width="224" height="30" viewBox="0 0 224 30" fill="none" xmlns="http://www.w3.org/2000/svg">
<path d="M25.1199 9.6001H33.2622V30H25.1199V9.6001Z" fill="#E03D22"/>
<path d="M60.634 11.3142H74.4933V18.3427H60.634V11.3142Z" fill="#E03D22"/>
<path d="M33.2622 4.02855C33.2622 6.25345 31.4395 8.05709 29.191 8.05709C26.9426 8.05709 25.1199 6.25345 25.1199 4.02855C25.1199 1.80364 26.9426 0 29.191 0C31.4395 0 33.2622 1.80364 33.2622 4.02855Z" fill="#E03D22"/>
<path fill-rule="evenodd" clip-rule="evenodd" d="M58.3821 10.9629C58.3473 4.90223 53.2308 0 46.9657 0C40.7005 0 35.6362 4.85186 35.5492 10.8789L35.515 28.9713H35.5144V29.3126V29.9998L41.0581 29.9998H42.9637H44.0032V11.1947H44.0043C44.0036 11.1668 44.0032 11.1389 44.0032 11.1109C44.0032 9.3985 45.3993 8.01034 47.1215 8.01034C48.8437 8.01034 50.2398 9.3985 50.2398 11.1109C50.2398 11.1389 50.2395 11.1668 50.2387 11.1947H50.2398V29.9998H50.9328H52.8385L58.3821 29.9998V29.3294V11.8994V10.9629Z" fill="#E03D22"/>
<path fill-rule="evenodd" clip-rule="evenodd" d="M0 29.9998H8.19688H8.21429V12.3195C8.21429 9.45011 9.25848 8.00682 11.3643 8.00682C12.2518 8.00682 13.0002 8.29892 13.6267 8.90029C14.2532 9.50166 14.5664 10.2233 14.5664 11.0824C14.5664 11.9243 14.2706 12.6632 13.6615 13.2817C13.0524 13.9003 12.3388 14.2095 11.4861 14.2095C10.8856 14.2095 10.2988 13.9944 9.70147 13.5759V22.3269C10.5445 22.4136 11.1974 22.4569 11.6601 22.4569C14.6883 22.4569 17.3161 21.3401 19.5437 19.1236C21.7539 16.9071 22.8677 14.2611 22.8677 11.2027C22.8677 8.05837 21.7539 5.41234 19.5089 3.2474C17.2639 1.08247 14.5142 0 11.2598 0C9.62395 0 8.02286 0.360822 6.47398 1.06529C4.9251 1.76975 3.63726 2.71476 2.62787 3.9175C0.870154 5.99653 0 8.6941 0 11.9931V29.9998Z" fill="#E03D22"/>
<path fill-rule="evenodd" clip-rule="evenodd" d="M101.865 29.9998H110.062H110.08V12.3195C110.08 9.45011 111.124 8.00682 113.23 8.00682C114.117 8.00682 114.866 8.29892 115.492 8.90029C116.119 9.50166 116.432 10.2233 116.432 11.0824C116.432 11.9243 116.136 12.6632 115.527 13.2817C114.918 13.9003 114.204 14.2095 113.352 14.2095C112.751 14.2095 112.164 13.9944 111.567 13.5759V22.3269C112.41 22.4136 113.063 22.4569 113.526 22.4569C116.554 22.4569 119.182 21.3401 121.409 19.1236C123.619 16.9071 124.733 14.2611 124.733 11.2027C124.733 8.05837 123.619 5.41234 121.374 3.2474C119.129 1.08247 116.38 0 113.125 0C111.489 0 109.888 0.360822 108.339 1.06529C106.791 1.76975 105.503 2.71476 104.493 3.9175C102.736 5.99653 101.865 8.6941 101.865 11.9931V29.9998Z" fill="#E03D22"/>
<path fill-rule="evenodd" clip-rule="evenodd" d="M76.746 1.02857L76.7802 19.1209C76.8672 25.148 81.9315 29.9998 88.1966 29.9998C94.4618 29.9998 99.5783 25.0976 99.6131 19.037V18.1004V0.685713H91.4708V18.8051H91.4697C91.4704 18.833 91.4708 18.8609 91.4708 18.8889C91.4708 20.6013 90.0747 21.9895 88.3525 21.9895C86.6303 21.9895 85.2341 20.6013 85.2341 18.8889C85.2341 18.8609 85.2345 18.833 85.2353 18.8051H85.2341V0.685713H76.7454V0.68718V1.02857H76.746ZM76.7454 2.61578e-06L85.2341 0H84.1947H82.2891L76.7454 2.61578e-06ZM91.4708 0L99.6131 2.61578e-06L94.0694 0H92.1638H91.4708Z" fill="#E03D22"/>
<path d="M136.791 29.9828V21.9429L144.76 22.0286L136.912 29.9828H136.791Z" fill="#24BB9D"/>
<path fill-rule="evenodd" clip-rule="evenodd" d="M137.033 0C133.685 0 130.97 2.68628 130.97 5.99996V16.1142C130.97 19.4279 133.685 22.1142 137.033 22.1142H217.937C221.285 22.1142 224 19.4279 224 16.1142V5.99996C224 2.68628 221.285 0 217.937 0H137.033ZM138.939 14.5851C138.939 13.4254 137.978 12.5142 136.687 12.5142C135.396 12.5142 134.435 13.4254 134.435 14.5851C134.435 15.7173 135.456 16.6285 136.687 16.6285C137.918 16.6285 138.939 15.7173 138.939 14.5851ZM140.498 11.4904C140.498 10.3886 140.527 9.37371 140.966 8.41684C141.844 6.50309 143.746 5.31425 145.941 5.31425C149.072 5.31425 151.412 7.60495 151.412 10.8815C151.412 14.1001 149.13 16.4488 145.941 16.4488C145.56 16.4488 145.092 16.3908 144.448 16.2748V12.7663C145.034 12.9402 145.472 13.0562 145.824 13.0562C147.14 13.0562 147.93 12.2153 147.93 10.9105C147.93 9.57668 147.14 8.76479 145.941 8.76479C144.653 8.76479 143.922 9.60568 143.922 11.1425V20.9142H140.498V11.4904ZM158.226 8.76736C159.605 8.76736 160.309 9.55083 160.309 11.1468V16.2829H163.712V11.7852C163.712 10.5374 163.712 9.46378 163.243 8.41914C162.363 6.50398 160.485 5.31425 158.285 5.31425C155.145 5.31425 152.798 7.63567 152.798 10.8856C152.798 14.1066 155.087 16.457 158.285 16.457C158.666 16.457 159.136 16.428 159.781 16.2829V12.7718C159.194 12.9459 158.754 13.062 158.402 13.062C157.082 13.062 156.29 12.2205 156.29 10.9147C156.29 9.60887 157.111 8.76736 158.226 8.76736ZM165.098 5.65711H168.149V7.23702C168.833 6.08799 169.888 5.65711 171.456 5.65711H171.855V8.87439H171.712C169.289 8.87439 168.32 9.87979 168.32 12.2927V16.2856H165.098V5.65711ZM176.526 5.68568V3.0857H173.241V11.8856C173.241 14.9142 174.713 16.2856 177.913 16.2856H179.131V13.1713H177.63C176.809 13.1713 176.526 12.8856 176.526 12.1428V8.79995H179.131V5.68568H176.526ZM186.908 10.2775C186.908 9.26162 186.281 8.59405 185.367 8.59405C184.454 8.59405 183.827 9.29065 183.827 10.2775V16.2856H180.517V10.829C180.517 7.31696 182.571 5.31425 185.367 5.31425C186.965 5.31425 188.392 6.0689 189.334 7.37501C190.047 8.39088 190.218 9.4648 190.218 10.829V16.2856H186.908V10.2775ZM193.2 14.8278C194.216 15.8752 195.609 16.457 197.031 16.457C199.585 16.457 201.733 14.9733 202.865 12.2676L200.311 11.0166C199.556 12.4712 198.453 13.2277 197.205 13.2277C195.899 13.2277 194.826 12.093 194.826 10.5802C194.826 9.06731 195.899 7.93266 197.205 7.93266C197.612 7.93266 198.018 8.04904 198.395 8.31088L195.58 10.2892L196.886 12.2676L202.11 8.71819C200.978 6.47799 199.208 5.31425 197.031 5.31425C195.58 5.31425 194.216 5.86703 193.2 6.91439C192.185 7.96176 191.604 9.35824 191.604 10.8711C191.604 12.384 192.156 13.7514 193.2 14.8278ZM204.251 5.65711H207.301V7.23702C207.985 6.08799 209.04 5.65711 210.608 5.65711H211.007V8.87439H210.865C208.441 8.87439 207.472 9.87979 207.472 12.2927V16.2856H204.251V5.65711ZM217.038 12.9051C217.038 13.1916 216.808 13.3062 216.435 13.3062H212.393V16.2856H215.919C217.267 16.2856 218.328 16.2856 219.216 15.7127C220.048 15.1397 220.535 14.2802 220.535 13.2775C220.535 11.7305 219.589 10.7565 217.64 9.95435L216.149 9.32409C216.005 9.26679 215.862 9.0949 215.862 8.92301C215.862 8.69382 216.091 8.52194 216.378 8.52194H219.962V5.65711H216.321C213.913 5.65711 212.565 6.83169 212.565 8.60788C212.565 10.0689 213.425 11.1003 215.203 11.8451L216.751 12.4754C216.894 12.5613 217.038 12.7046 217.038 12.9051Z" fill="#24BB9D"/>
</svg>
