<svg width="80" height="21" viewBox="0 0 80 21" fill="none" xmlns="http://www.w3.org/2000/svg">
<path d="M16.1111 8.08444C16.1111 7.44919 16.6085 6.9342 17.2222 6.9342H20.2222C20.8359 6.9342 21.3333 7.44919 21.3333 8.08444V20.622H16.1111V8.08444Z" fill="#E03D22"/>
<path d="M38.8889 9.23465C38.8889 8.5994 39.3864 8.08441 40 8.08441H46.6667C47.2804 8.08441 47.7778 8.5994 47.7778 9.23465V11.6501C47.7778 12.2854 47.2804 12.8004 46.6667 12.8004H40C39.3864 12.8004 38.8889 12.2854 38.8889 11.6501V9.23465Z" fill="#E03D22"/>
<path d="M18.7222 5.89902C20.1643 5.89902 21.3333 4.68883 21.3333 3.19597C21.3333 1.70312 20.1643 0.49292 18.7222 0.49292C17.2801 0.49292 16.1111 1.70312 16.1111 3.19597C16.1111 4.68883 17.2801 5.89902 18.7222 5.89902Z" fill="#E03D22"/>
<path fill-rule="evenodd" clip-rule="evenodd" d="M37.4445 7.84872C37.4222 3.78219 34.1406 0.49292 30.1223 0.49292C26.1041 0.49292 22.8559 3.7484 22.8002 7.79239L22.7783 19.9319H22.7778V20.1609V20.622H26.3334H27.5556H28.2223V8.00428H28.2229C28.2225 7.98559 28.2223 7.96685 28.2223 7.94804C28.2223 6.79907 29.1177 5.86766 30.2223 5.86766C31.3268 5.86766 32.2223 6.79907 32.2223 7.94804C32.2223 7.96685 32.2221 7.98559 32.2216 8.00428H32.2223V20.622H32.6667H33.8889H37.4445V20.1722V8.47709V7.84872Z" fill="#E03D22"/>
<path fill-rule="evenodd" clip-rule="evenodd" d="M0 20.622H5.25724H5.26839V8.75901C5.26839 6.83371 5.9381 5.8653 7.28869 5.8653C7.85795 5.8653 8.3379 6.06129 8.73973 6.46479C9.14156 6.86829 9.34247 7.3525 9.34247 7.92894C9.34247 8.49384 9.15273 8.98957 8.76206 9.40461C8.37139 9.81964 7.91376 10.0272 7.36682 10.0272C6.98171 10.0272 6.60532 9.88278 6.22222 9.60202V15.4737C6.76294 15.5319 7.18167 15.5609 7.47844 15.5609C9.4206 15.5609 11.106 14.8116 12.5348 13.3244C13.9523 11.8372 14.6667 10.0617 14.6667 8.00964C14.6667 5.89988 13.9523 4.12447 12.5124 2.67184C11.0726 1.21923 9.30899 0.49292 7.22172 0.49292C6.1725 0.49292 5.14561 0.735023 4.15221 1.2077C3.1588 1.68038 2.33282 2.31446 1.68543 3.12146C0.55809 4.51644 0 6.32644 0 8.53995V20.622Z" fill="#E03D22"/>
<path fill-rule="evenodd" clip-rule="evenodd" d="M65.3334 20.622H70.5906H70.6018V8.75901C70.6018 6.83371 71.2715 5.8653 72.622 5.8653C73.1913 5.8653 73.6713 6.06129 74.0732 6.46479C74.4749 6.86829 74.6758 7.3525 74.6758 7.92894C74.6758 8.49384 74.486 8.98957 74.0954 9.40461C73.7047 9.81964 73.2472 10.0272 72.7002 10.0272C72.315 10.0272 71.9387 9.88278 71.5556 9.60202V15.4737C72.0963 15.5319 72.515 15.5609 72.8118 15.5609C74.7539 15.5609 76.4394 14.8116 77.8682 13.3244C79.2857 11.8372 80 10.0617 80 8.00964C80 5.89988 79.2857 4.12447 77.8458 2.67184C76.4059 1.21923 74.6424 0.49292 72.555 0.49292C71.5059 0.49292 70.479 0.735023 69.4856 1.2077C68.4922 1.68038 67.6662 2.31446 67.0188 3.12146C65.8915 4.51644 65.3334 6.32644 65.3334 8.53995V20.622Z" fill="#E03D22"/>
<path fill-rule="evenodd" clip-rule="evenodd" d="M49.2227 1.18306L49.2446 13.3225C49.3004 17.3665 52.5485 20.622 56.5667 20.622C60.5851 20.622 63.8666 17.3328 63.889 13.2663V12.6379V0.953016H58.6667V13.1107H58.6661C58.6665 13.1294 58.6667 13.1482 58.6667 13.1669C58.6667 14.3159 57.7713 15.2473 56.6667 15.2473C55.5622 15.2473 54.6667 14.3159 54.6667 13.1669C54.6667 13.1482 54.667 13.1294 54.6674 13.1107H54.6667V0.953016H49.2223V0.954001V1.18306H49.2227ZM49.2223 0.492922L54.6667 0.49292H54.0001H52.7778L49.2223 0.492922ZM58.6667 0.49292L63.889 0.492922L60.3334 0.49292H59.1112H58.6667Z" fill="#E03D22"/>
</svg>
