<svg width="24" height="24" viewBox="0 0 24 24" fill="none" xmlns="http://www.w3.org/2000/svg">
<path d="M21.75 0H5.25C4.00725 0 3 1.0065 3 2.25V3.75H2.25C1.00725 3.75 0 4.7565 0 6V21C0 22.6567 1.34325 24 3 24H21C22.6567 24 24 22.6567 24 21V2.25C24 1.0065 22.992 0 21.75 0ZM22.5 21C22.5 21.8265 21.8265 22.5 21 22.5H3C2.17275 22.5 1.5 21.8265 1.5 21V6C1.5 5.586 1.836 5.25 2.25 5.25H3V20.25C3 20.6647 3.33525 21 3.75 21C4.16475 21 4.5 20.6647 4.5 20.25V2.25C4.5 1.836 4.836 1.5 5.25 1.5H21.75C22.1632 1.5 22.5 1.836 22.5 2.25V21Z" fill="white"/>
<path d="M14.6241 9.75375H20.6241C20.8318 9.75375 20.9991 9.58575 20.9991 9.37875C20.9991 9.17175 20.8318 9.00375 20.6241 9.00375H14.6241C14.4178 9.00375 14.2491 9.17175 14.2491 9.37875C14.2491 9.58575 14.4178 9.75375 14.6241 9.75375Z" fill="white"/>
<path d="M14.6241 7.50375H20.6241C20.8318 7.50375 20.9991 7.33575 20.9991 7.12875C20.9991 6.92175 20.8318 6.75375 20.6241 6.75375H14.6241C14.4178 6.75375 14.2491 6.92175 14.2491 7.12875C14.2491 7.33575 14.4178 7.50375 14.6241 7.50375Z" fill="white"/>
<path d="M14.6241 5.25375H20.6241C20.8318 5.25375 20.9991 5.08575 20.9991 4.87875C20.9991 4.67175 20.8318 4.50375 20.6241 4.50375H14.6241C14.4178 4.50375 14.2491 4.67175 14.2491 4.87875C14.2491 5.08575 14.4178 5.25375 14.6241 5.25375Z" fill="white"/>
<path d="M12.375 20.253H6.375C6.168 20.253 6 20.4218 6 20.628C6 20.8358 6.168 21.003 6.375 21.003H12.375C12.5813 21.003 12.75 20.8358 12.75 20.628C12.75 20.4218 12.582 20.253 12.375 20.253Z" fill="white"/>
<path d="M12.375 18.003H6.375C6.168 18.003 6 18.1718 6 18.378C6 18.5858 6.168 18.753 6.375 18.753H12.375C12.5813 18.753 12.75 18.5858 12.75 18.378C12.75 18.1718 12.582 18.003 12.375 18.003Z" fill="white"/>
<path d="M12.375 15.753H6.375C6.168 15.753 6 15.9218 6 16.128C6 16.3358 6.168 16.503 6.375 16.503H12.375C12.5813 16.503 12.75 16.3358 12.75 16.128C12.75 15.9218 12.582 15.753 12.375 15.753Z" fill="white"/>
<path d="M20.625 20.253H14.625C14.4172 20.253 14.25 20.4218 14.25 20.628C14.25 20.8358 14.4172 21.003 14.625 21.003H20.625C20.8313 21.003 21 20.8358 21 20.628C21 20.4218 20.8313 20.253 20.625 20.253Z" fill="white"/>
<path d="M20.625 18.003H14.625C14.4172 18.003 14.25 18.1718 14.25 18.378C14.25 18.5858 14.4172 18.753 14.625 18.753H20.625C20.8313 18.753 21 18.5858 21 18.378C21 18.1718 20.8313 18.003 20.625 18.003Z" fill="white"/>
<path d="M20.625 15.753H14.625C14.4172 15.753 14.25 15.9218 14.25 16.128C14.25 16.3358 14.4172 16.503 14.625 16.503H20.625C20.8313 16.503 21 16.3358 21 16.128C21 15.9218 20.8313 15.753 20.625 15.753Z" fill="white"/>
<path d="M20.625 11.253H6.375C6.168 11.253 6 11.421 6 11.628C6 11.835 6.168 12.003 6.375 12.003H20.625C20.8313 12.003 21 11.835 21 11.628C21 11.421 20.8313 11.253 20.625 11.253Z" fill="white"/>
<path d="M20.625 13.503H6.375C6.168 13.503 6 13.6718 6 13.878C6 14.0858 6.168 14.253 6.375 14.253H20.625C20.8313 14.253 21 14.0858 21 13.878C21 13.6718 20.8313 13.503 20.625 13.503Z" fill="white"/>
<path d="M6.75 9.75005H12C12.4148 9.75005 12.75 9.4148 12.75 9.00005V3.75305C12.75 3.3383 12.4148 3.00305 12 3.00305H6.75C6.33525 3.00305 6 3.3383 6 3.75305V9.00005C6 9.41405 6.33525 9.75005 6.75 9.75005ZM7.5 4.50005H11.25V8.25005H7.5V4.50005Z" fill="white"/>
</svg>
