<svg width="24" height="18" viewBox="0 0 24 18" fill="none" xmlns="http://www.w3.org/2000/svg">
<path d="M21 2.76923V0H0V15.2308C0 15.2308 0 18 3 18H21.75C21.75 18 24 17.9571 24 15.2308V2.76923H21ZM3 16.6154C1.5 16.6154 1.5 15.2308 1.5 15.2308V1.38462H19.5V15.2308C19.5 15.8684 19.713 16.3101 20.007 16.6154H3Z" fill="white"/>
<path d="M18 4.15385H3V5.53846H18V4.15385Z" fill="white"/>
<path d="M16.5 12.4615H11.25V13.8462H16.5V12.4615Z" fill="white"/>
<path d="M18 9.69231H11.25V11.0769H18V9.69231Z" fill="white"/>
<path d="M18 6.92308H11.25V8.3077H18V6.92308Z" fill="white"/>
<path d="M9.75 6.92308H3V13.8462H9.75V6.92308Z" fill="white"/>
</svg>
