<svg width="18" height="24" viewBox="0 0 18 24" fill="none" xmlns="http://www.w3.org/2000/svg">
<path d="M13.7501 0H1.49315C0.670167 0 0 0.660914 0 1.47182V22.528C0 23.3401 0.670167 24 1.49315 24H16.5067C17.3305 24 18 23.3401 18 22.528V4.55097L13.7501 0ZM14.1025 2.2024L15.9653 4.19758H14.1025V2.2024ZM16.7459 22.528C16.7459 22.6577 16.6382 22.7641 16.5061 22.7641H1.49315C1.36119 22.7641 1.25412 22.6577 1.25412 22.528V1.47182C1.25412 1.34187 1.36119 1.23655 1.49315 1.23655H12.8477V4.81581C12.8477 5.15659 13.1294 5.43286 13.4754 5.43286H16.7459V22.528ZM3.46639 6.57344H14.1159C14.3753 6.57344 14.5857 6.7808 14.5857 7.03647C14.5857 7.29213 14.3753 7.4995 14.1159 7.4995H3.46639C3.20702 7.4995 2.99655 7.29213 2.99655 7.03647C2.99655 6.78085 3.20702 6.57344 3.46639 6.57344ZM14.5857 10.1481C14.5857 10.4037 14.3753 10.6111 14.1159 10.6111H3.46639C3.20702 10.6111 2.99655 10.4037 2.99655 10.1481C2.99655 9.89239 3.20702 9.68502 3.46639 9.68502H14.1159C14.3753 9.68502 14.5857 9.89244 14.5857 10.1481ZM14.5857 13.1577C14.5857 13.4134 14.3753 13.6208 14.1159 13.6208H3.46639C3.20702 13.6208 2.99655 13.4134 2.99655 13.1577C2.99655 12.9021 3.20702 12.6947 3.46639 12.6947H14.1159C14.3753 12.6947 14.5857 12.9021 14.5857 13.1577ZM14.5857 16.2187C14.5857 16.4743 14.3753 16.6817 14.1159 16.6817H3.46639C3.20702 16.6817 2.99655 16.4743 2.99655 16.2187C2.99655 15.963 3.20702 15.7556 3.46639 15.7556H14.1159C14.3753 15.7556 14.5857 15.963 14.5857 16.2187Z" fill="white"/>
</svg>
