<svg width="18" height="18" viewBox="0 0 18 18" fill="none" xmlns="http://www.w3.org/2000/svg">
<path fill-rule="evenodd" clip-rule="evenodd" d="M17.9437 8.00085C17.9152 7.74782 17.6202 7.55768 17.3651 7.55768C16.5403 7.55768 15.8084 7.07339 15.5014 6.32441C15.1879 5.55728 15.3901 4.66263 16.0048 4.09877C16.1982 3.92189 16.2218 3.6258 16.0595 3.42012C15.6373 2.88405 15.1575 2.39982 14.6337 1.98016C14.4285 1.81554 14.1275 1.83844 13.9496 2.03542C13.4132 2.62955 12.4495 2.85036 11.7049 2.53967C10.93 2.2137 10.4414 1.42849 10.4892 0.585614C10.5049 0.320863 10.3114 0.0906706 10.0475 0.0599292C9.3752 -0.0178284 8.69701 -0.0202395 8.02271 0.0545712C7.76178 0.0833704 7.56829 0.308137 7.57706 0.56954C7.6064 1.40411 7.11186 2.17559 6.34466 2.48984C5.60894 2.79035 4.65208 2.57141 4.11668 1.98257C3.93973 1.78861 3.64364 1.76477 3.43749 1.92544C2.89808 2.34866 2.40749 2.83329 1.98146 3.36493C1.8153 3.57161 1.83974 3.87119 2.03517 4.04901C2.66159 4.61629 2.86385 5.5187 2.53842 6.29467C2.22773 7.03447 1.45953 7.51127 0.580082 7.51127C0.294703 7.50209 0.0914345 7.69364 0.0602243 7.9531C-0.0189398 8.62928 -0.0198775 9.31824 0.0563398 9.99991C0.0846031 10.254 0.388601 10.4425 0.646521 10.4425C1.43026 10.4225 2.18272 10.9077 2.49837 11.6758C2.81302 12.4429 2.61076 13.3371 1.99512 13.9014C1.80257 14.0783 1.77813 14.3739 1.94041 14.5796C2.3586 15.1122 2.83847 15.5969 3.36422 16.0201C3.57044 16.1862 3.87048 16.1628 4.04924 15.9658C4.58771 15.3702 5.55128 15.1498 6.29296 15.4611C7.0698 15.7861 7.55844 16.5712 7.51062 17.4146C7.49502 17.6794 7.68945 17.91 7.95232 17.9403C8.29624 17.9804 8.64223 18.0004 8.98916 18.0004C9.31847 18.0004 9.64785 17.9824 9.97717 17.9457C10.2382 17.9169 10.4315 17.6922 10.4228 17.4303C10.3925 16.5962 10.888 15.8247 11.6541 15.511C12.3948 15.2085 13.3477 15.4299 13.8831 16.0181C14.0611 16.2117 14.3551 16.2351 14.5624 16.0749C15.1008 15.6527 15.5904 15.1685 16.0184 14.6354C16.1845 14.4292 16.1611 14.1291 15.9646 13.9514C15.3382 13.3841 15.135 12.4815 15.4604 11.7061C15.7663 10.9761 16.506 10.486 17.3016 10.486L17.4129 10.4889C17.671 10.5099 17.9084 10.3111 17.9397 10.0477C18.019 9.37089 18.0199 8.68252 17.9437 8.00085ZM9.01427 12.0213C7.35879 12.0213 6.0122 10.6748 6.0122 9.01927C6.0122 7.36386 7.35879 6.0172 9.01427 6.0172C10.6697 6.0172 12.0163 7.36386 12.0163 9.01927C12.0163 10.6748 10.6697 12.0213 9.01427 12.0213Z" fill="#5C5C5C"/>
</svg>
