<svg width="27" height="27" viewBox="0 0 27 27" fill="none" xmlns="http://www.w3.org/2000/svg">
<path d="M25.6965 1.11439C25.339 0.802487 24.8988 0.584248 24.4208 0.481934H2.50758C2.02189 0.589517 1.57783 0.820063 1.22475 1.14795C0.871667 1.47584 0.62339 1.88823 0.507507 2.33929V18.0823C0.619627 18.4962 0.828988 18.8818 1.12057 19.2116C1.41215 19.5415 1.77872 19.8072 2.19398 19.9899H9.19933C9.91484 20.2824 10.5935 20.6471 11.2231 21.0775C12.1615 21.733 12.9943 22.5095 13.6966 23.3835C14.2027 23.9906 14.3352 24.2605 15.2101 25.3112C15.5659 25.7386 15.8689 26.0841 16.075 26.3153C16.1073 26.3337 16.8068 26.7194 17.502 26.3755C17.6705 26.2879 17.8185 26.17 17.9373 26.0286C18.0561 25.8872 18.1433 25.7253 18.1939 25.5522V19.9978H24.4295C24.9561 19.9429 25.4469 19.7235 25.8216 19.3755C26.1963 19.0275 26.4325 18.5717 26.4917 18.0826V2.40451C26.3684 1.91143 26.0919 1.46283 25.6965 1.11439ZM25.3146 2.36612V17.8548C25.3069 18.1072 25.2115 18.3505 25.0427 18.5484C24.8738 18.7463 24.6404 18.888 24.3776 18.9525H17.9488C17.6968 18.9861 17.464 19.0962 17.2866 19.2658C17.1092 19.4353 16.9974 19.6547 16.9685 19.8895V25.4852C16.0717 24.3659 14.7932 22.8491 13.2785 21.3085C12.6233 20.5915 11.8318 19.9926 10.9434 19.5414C10.387 19.2692 9.79625 19.0624 9.1848 18.9257H2.4678C2.27703 18.863 2.1061 18.7572 1.9705 18.6177C1.77195 18.4062 1.66194 18.1353 1.66054 17.8547V2.54009C1.66099 2.27748 1.77353 2.02574 1.97348 1.84004C2.17342 1.65434 2.44448 1.54983 2.72725 1.54941H24.4352C24.559 1.54787 24.6818 1.57039 24.7956 1.61551C24.9095 1.66063 25.012 1.72736 25.0965 1.81142C25.2415 1.96437 25.3194 2.16235 25.3146 2.36612Z" fill="#2B2B2B"/>
<path fill-rule="evenodd" clip-rule="evenodd" d="M24.4775 0L24.5326 0.0118105C25.0964 0.132489 25.6168 0.390134 26.0403 0.759609L25.6967 1.1145L26.0422 0.761262C26.5104 1.1739 26.8391 1.70641 26.9859 2.29337L26.9996 2.34828V18.1104L26.9963 18.1378C26.9238 18.7381 26.6339 19.2959 26.1769 19.7204C25.72 20.1446 25.1232 20.4107 24.485 20.4773L24.4574 20.4802H18.7018V25.618L18.6834 25.6813C18.6144 25.9174 18.4956 26.1377 18.3344 26.3295C18.1732 26.5213 17.973 26.6806 17.746 26.7986L17.7368 26.8034C17.6496 26.8465 17.5626 26.8812 17.4765 26.9088V26.9158L17.472 26.9102C17.0803 27.0347 16.7089 27.0107 16.4304 26.9523C16.0925 26.8814 15.8571 26.7537 15.8131 26.7286L15.7413 26.6876L15.6872 26.6269C15.4786 26.3928 15.1718 26.043 14.8117 25.6104L15.2102 25.3115C15.566 25.7388 15.869 26.0843 16.075 26.3155C16.1017 26.3307 16.582 26.5957 17.1395 26.4953C17.2498 26.4754 17.3631 26.4412 17.4765 26.388C17.485 26.384 17.4935 26.3799 17.502 26.3757C17.6705 26.2881 17.8185 26.1702 17.9373 26.0288C18.0561 25.8875 18.1434 25.7255 18.1939 25.5524V19.998H24.4295C24.9561 19.9431 25.447 19.7237 25.8217 19.3757C26.1963 19.0278 26.4326 18.5719 26.4917 18.0828V2.40472C26.3684 1.91164 26.092 1.46294 25.6967 1.1145C25.3392 0.8026 24.8989 0.58446 24.4209 0.482145H2.50763C2.02194 0.589729 1.57788 0.820275 1.2248 1.14816C0.871717 1.47605 0.62344 1.88844 0.507557 2.3395V18.0825C0.619677 18.4964 0.829038 18.882 1.12062 19.2119C1.4122 19.5417 1.77877 19.8075 2.19403 19.9902H9.19938C9.91489 20.2826 10.5936 20.6473 11.2232 21.0777C12.1615 21.7333 12.9944 22.5098 13.6966 23.3837C13.916 23.6468 14.0652 23.8466 14.235 24.074C14.457 24.3714 14.7144 24.7161 15.2102 25.3115L14.8117 25.6104C14.3678 25.0773 14.1107 24.7404 13.9011 24.4606C13.8732 24.4233 13.8463 24.3873 13.8201 24.3521C13.6504 24.125 13.5089 23.9355 13.2984 23.6829L13.2927 23.6762C12.6205 22.8395 11.8231 22.0957 10.9242 21.4675C10.3531 21.0773 9.73951 20.7438 9.09336 20.4723H2.08205L1.98045 20.4276C1.49817 20.2154 1.0715 19.9063 0.731546 19.5218C0.391555 19.1372 0.146815 18.6868 0.0156404 18.2026L-0.000366211 18.1435V2.28156L0.0140958 2.22527C0.152708 1.68573 0.449363 1.19377 0.869605 0.803514C1.28976 0.413344 1.81699 0.140028 2.39221 0.0126141L2.44915 0H24.4775ZM25.3146 2.36633C25.3194 2.16257 25.2416 1.96458 25.0965 1.81163C25.012 1.72757 24.9096 1.66084 24.7957 1.61572C24.6818 1.5706 24.559 1.54809 24.4352 1.54962H2.7273C2.44453 1.55004 2.17347 1.65456 1.97353 1.84025C1.77358 2.02595 1.66104 2.27769 1.66059 2.5403V17.8549C1.66199 18.1355 1.772 18.4064 1.97055 18.6179C2.10615 18.7574 2.27708 18.8633 2.46785 18.9259H9.18486C9.7963 19.0626 10.387 19.2694 10.9435 19.5416C11.8319 19.9928 12.6234 20.5918 13.2786 21.3087C14.5268 22.5783 15.6146 23.8317 16.4607 24.8599C16.6412 25.0793 16.8108 25.2885 16.9686 25.4854V19.8898C16.9974 19.6549 17.1093 19.4355 17.2867 19.266C17.464 19.0965 17.6969 18.9863 17.9488 18.9527H24.3777C24.6405 18.8882 24.8738 18.7465 25.0427 18.5486C25.2116 18.3507 25.307 18.1074 25.3146 17.855V2.36633ZM24.8067 17.8472V2.36633H25.3146L24.8068 2.3556C24.8087 2.27815 24.7801 2.20121 24.7239 2.13942C24.6893 2.10633 24.6473 2.07938 24.6 2.06066C24.5504 2.041 24.4965 2.03105 24.4419 2.03172L24.4352 2.0318L2.72778 2.03176C2.57603 2.03207 2.43275 2.08829 2.32874 2.18489C2.22511 2.28112 2.16884 2.4093 2.16851 2.54076V17.8536C2.16956 18.0138 2.23187 18.17 2.34682 18.294C2.40803 18.3562 2.48204 18.4071 2.56489 18.4437H9.24385L9.30128 18.4566C9.95294 18.6023 10.5827 18.8227 11.1762 19.1131L11.1831 19.1165C12.1229 19.5937 12.9612 20.2273 13.6561 20.9861C14.7251 22.0737 15.6766 23.1485 16.4607 24.0816V19.8617L16.4641 19.8339C16.5063 19.4905 16.6696 19.1716 16.9262 18.9263C17.1827 18.6811 17.5177 18.5233 17.8782 18.4753L17.9133 18.4706H24.3048C24.4411 18.4268 24.56 18.3482 24.6481 18.2451C24.7461 18.1302 24.801 17.9908 24.8067 17.8472Z" fill="#2B2B2B"/>
<path d="M22.4606 8.56445C22.4086 8.4943 22.34 8.43613 22.26 8.39437C22.1801 8.35261 22.0909 8.32836 21.9993 8.32349H4.9905C4.81032 8.35973 4.64519 8.44339 4.51483 8.56446C4.38447 8.68552 4.2944 8.83888 4.25537 9.00622V11.0411C4.33737 11.5157 4.56432 11.9584 4.90926 12.3167C5.2542 12.675 5.70264 12.9339 6.2013 13.0625H8.98321C9.60197 12.9925 10.1816 12.7444 10.6408 12.3529C10.9855 12.0536 11.2475 11.6817 11.4048 11.2686V9.50148H15.4553V11.282C15.6677 11.7107 15.9773 12.0917 16.3629 12.399C16.7486 12.7063 17.2011 12.9326 17.6896 13.0625H20.7453C21.1537 12.9131 21.5238 12.6858 21.8317 12.3952C22.1396 12.1047 22.3783 11.7574 22.5326 11.3757V8.97939C22.5508 8.90925 22.5538 8.83645 22.5415 8.76521C22.5291 8.69398 22.5017 8.62573 22.4606 8.56445ZM10.3813 10.8403C10.3274 10.9155 9.41079 12.1463 7.7724 12.0986C6.24143 12.0541 5.41809 10.9322 5.34354 10.8268L5.35789 9.38437L10.3813 9.39449V10.8403ZM21.5669 10.8403C21.5129 10.9155 20.5964 12.1463 18.958 12.0986C17.427 12.0541 16.6036 10.9322 16.5291 10.8268L16.5435 9.38437L21.5669 9.39449V10.8403Z" fill="#2B2B2B"/>
<path fill-rule="evenodd" clip-rule="evenodd" d="M22.0136 7.84106L22.0278 7.84182C22.1949 7.85072 22.3581 7.89495 22.5049 7.97168C22.6519 8.04842 22.779 8.15586 22.8759 8.28653L22.4607 8.56417C22.4086 8.49403 22.34 8.43585 22.2601 8.39409C22.1801 8.35233 22.091 8.32809 21.9994 8.32321H4.99055C4.81037 8.35946 4.64524 8.44311 4.51488 8.56418C4.38452 8.68525 4.29445 8.83861 4.25542 9.00594V11.0408C4.33742 11.5154 4.56437 11.9581 4.90931 12.3164C5.25425 12.6748 5.70269 12.9336 6.20135 13.0622H8.98326C9.60202 12.9923 10.1817 12.7441 10.6408 12.3526C10.9855 12.0534 11.2476 11.6814 11.4049 11.2683V9.50121H15.4553V11.2818C15.6678 11.7104 15.9774 12.0914 16.363 12.3987C16.7486 12.706 17.2011 12.9323 17.6896 13.0622H20.7453C21.1537 12.9128 21.5239 12.6855 21.8317 12.395C22.1396 12.1044 22.3784 11.7571 22.5326 11.3754V8.97912C22.5509 8.90897 22.5539 8.83617 22.5415 8.76493C22.5292 8.6937 22.5017 8.62546 22.4607 8.56417L22.8894 8.30564C22.9669 8.42144 23.0192 8.55093 23.0427 8.68662C23.0624 8.8 23.0616 8.91547 23.0406 9.02824V11.4647L23.0069 11.5481C22.8267 11.9939 22.5482 12.3987 22.1898 12.7369C21.8316 13.075 21.4015 13.3389 20.9279 13.5121L20.8398 13.5443H17.6198L17.5526 13.5265C16.9951 13.3782 16.4778 13.1197 16.0364 12.768C15.595 12.4162 15.2398 11.9794 14.9957 11.487L14.9474 11.3895V9.98335H11.9128V11.3527L11.8826 11.4321C11.6971 11.9194 11.3884 12.357 10.9836 12.7084L10.9803 12.7113C10.4424 13.1699 9.76493 13.4594 9.0433 13.5409L9.01338 13.5443H6.13359L6.06819 13.5275C5.47761 13.3752 4.945 13.0682 4.53436 12.6417C4.12362 12.215 3.85229 11.6866 3.75419 11.1188L3.7475 11.0801V8.95321L3.75951 8.90172C3.82008 8.642 3.95958 8.40538 4.15967 8.21954C4.35966 8.03381 4.61174 7.90656 4.88524 7.85154L4.93732 7.84106H22.0136ZM18.958 12.0983C20.5964 12.146 21.513 10.9152 21.5669 10.84V9.39422L16.5435 9.3841L16.5291 10.8265C16.6037 10.9319 17.427 12.0538 18.958 12.0983ZM17.0387 10.6691C17.2684 10.9394 17.9259 11.586 18.9736 11.6164C19.6478 11.636 20.1769 11.3943 20.5535 11.1284C20.742 10.9953 20.8885 10.8586 20.99 10.7519C21.0162 10.7244 21.0392 10.699 21.059 10.6764V9.87534L17.0466 9.86726L17.0387 10.6691ZM7.78803 11.6164C8.46229 11.636 8.99131 11.3943 9.36794 11.1284C9.55643 10.9953 9.70292 10.8586 9.8044 10.7519C9.83061 10.7244 9.85365 10.699 9.87346 10.6764V9.87534L5.86108 9.86726L5.8531 10.6691C6.08286 10.9394 6.74038 11.586 7.78803 11.6164ZM5.34359 10.8265C5.41814 10.9319 6.24148 12.0538 7.77245 12.0983C9.41084 12.146 10.3274 10.9152 10.3814 10.84V9.39422L5.35794 9.3841L5.34359 10.8265Z" fill="#2B2B2B"/>
</svg>
