<svg width="24" height="24" viewBox="0 0 24 24" fill="none" xmlns="http://www.w3.org/2000/svg">
<path d="M22.2509 11.0177H23.9457L24.0001 10.9634C24.0001 10.4424 23.9566 9.91047 23.8806 9.38943L22.2509 11.0177Z" fill="white"/>
<path d="M18.3613 1.40028L12.9833 6.77342V8.46677L19.3934 2.06243C19.0566 1.81277 18.7089 1.59567 18.3613 1.40028Z" fill="white"/>
<path d="M15.9711 0.412491L12.9833 3.39757V5.09092L17.2205 0.857538C16.8185 0.673006 16.3948 0.531894 15.9711 0.412491Z" fill="white"/>
<path d="M14.5804 0.119403C14.0589 0.0434191 13.5374 0 13.005 0L12.9833 0.0217093V1.71506L14.5804 0.119403Z" fill="white"/>
<path d="M17.1879 11.0176L22.5877 5.62279C22.3921 5.27544 22.1748 4.92808 21.9249 4.59158L15.493 11.0176H17.1879Z" fill="white"/>
<path d="M21.1752 3.64724C21.0448 3.50613 20.9145 3.36502 20.7732 3.22391C20.632 3.08279 20.4799 2.94168 20.3278 2.80057L12.9833 10.1493V11.0068H13.809L21.1752 3.64724Z" fill="white"/>
<path d="M20.5668 11.0176L23.5872 7.99998C23.4677 7.57664 23.3156 7.16416 23.1526 6.75168L18.8828 11.0176H20.5668Z" fill="white"/>
<path d="M11.0602 1.89958C4.95428 1.89958 0 6.84938 0 12.9498C0 19.0502 4.95428 24 11.0602 24C17.1661 24 22.1204 19.0502 22.1204 12.9498H11.0602V1.89958Z" fill="white"/>
</svg>
