<svg width="20" height="24" viewBox="0 0 20 24" fill="none" xmlns="http://www.w3.org/2000/svg">
<path d="M12.4973 16.4753H7.48092C3.35878 16.4753 0 19.8537 0 24H20C19.9782 19.8757 16.6194 16.4753 12.4973 16.4753Z" fill="white"/>
<path d="M10.8833 13.0311C11.2759 13.0311 11.6467 13.1627 11.9302 13.404H13.7405C14.6347 12.4607 15.18 11.2102 15.18 9.80622C15.18 6.91042 12.8463 4.58501 9.98912 4.58501C7.13198 4.58501 4.79828 6.91042 4.79828 9.80622C4.79828 11.7587 5.86698 13.4698 7.45913 14.3693C7.63361 13.6015 8.30973 13.0311 9.0949 13.0311H10.8833Z" fill="white"/>
<path d="M2.31191 10.245C2.37734 10.7934 2.63907 11.298 3.00984 11.6709C3.29337 11.9561 3.66415 12.1755 4.07854 12.3071C4.05673 12.2194 4.05673 12.1316 4.05673 12.0658V7.80987C4.05673 7.72212 4.05673 7.63437 4.07854 7.54662C3.66415 7.65631 3.31518 7.87569 3.00984 8.18282C2.98803 8.20475 2.94441 8.24863 2.9226 8.27057V8.09506C2.9226 7.67825 2.96622 7.26143 3.03165 6.86654C3.09708 6.44973 3.20613 6.05484 3.3588 5.6819C3.48967 5.28702 3.66415 4.91408 3.88225 4.56307C4.07854 4.21207 4.31846 3.86106 4.58018 3.55393C4.60199 3.53199 4.6238 3.48812 4.6238 3.46618C4.82009 3.48812 5.01638 3.4223 5.14724 3.29068C6.47767 1.95247 8.22249 1.29433 9.9455 1.29433C11.6685 1.29433 13.4351 1.95247 14.7438 3.29068C14.8964 3.44424 15.0927 3.48812 15.2672 3.46618C15.289 3.48812 15.289 3.53199 15.3108 3.55393C15.5725 3.86106 15.8125 4.21207 16.0087 4.56307C16.205 4.91408 16.3795 5.28702 16.5322 5.6819C16.6631 6.07678 16.7721 6.47166 16.8593 6.88848C16.9248 7.28336 16.9684 7.70018 16.9684 8.117V8.2925C16.9466 8.24863 16.903 8.22669 16.8812 8.20475C16.5976 7.91956 16.2269 7.70018 15.8125 7.56856C15.8343 7.65631 15.8343 7.74406 15.8343 7.83181V12.0658C15.8343 12.1536 15.8343 12.2413 15.8125 12.3071C15.9215 12.2852 16.0306 12.2413 16.1396 12.1974V13.5795C16.1396 13.7331 16.1178 13.8867 16.096 13.9963C16.0742 14.106 16.0306 14.1718 15.9869 14.2377C15.9433 14.2815 15.8779 14.3254 15.8125 14.3473C15.7252 14.3693 15.638 14.3912 15.5289 14.3912H15.5071H11.494C11.3632 14.1718 11.1451 14.0183 10.8615 14.0183H9.07309C8.68051 14.0183 8.37516 14.3473 8.37516 14.7203C8.39697 15.1152 8.70232 15.4223 9.0949 15.4223H10.8833C11.1451 15.4223 11.385 15.2687 11.5158 15.0494H15.5725H15.7252C15.8779 15.0494 16.0087 15.0055 16.1396 14.9616C16.3141 14.8958 16.445 14.808 16.5758 14.6764C16.6849 14.5448 16.7721 14.3912 16.8375 14.1938C16.8812 14.0183 16.9248 13.7989 16.9248 13.5576V11.8026V11.7367C16.9466 11.7148 16.9684 11.6929 16.9902 11.6709C17.361 11.298 17.6227 10.7934 17.6881 10.245C17.7099 10.223 17.7318 10.223 17.7318 10.2011C17.7972 10.1353 17.8408 10.0256 17.8408 9.93784V8.117C17.8408 7.65631 17.7972 7.19561 17.7318 6.75686C17.6009 6.29616 17.4918 5.8574 17.3392 5.41865C17.1865 4.97989 16.9902 4.56307 16.7503 4.16819C16.5322 3.77331 16.2705 3.40037 15.9651 3.04936C15.9433 3.00548 15.8997 2.98355 15.8561 2.96161C15.8997 2.76417 15.8343 2.52285 15.6816 2.36929C14.1113 0.789762 12.0611 0 9.98912 0C7.91715 0 5.86698 0.789762 4.27484 2.36929C4.12216 2.52285 4.05673 2.76417 4.10035 2.96161C4.05673 2.98355 4.03492 3.00548 3.9913 3.04936C3.68596 3.40037 3.42423 3.77331 3.20613 4.16819C2.98803 4.56307 2.79174 4.97989 2.61726 5.41865C2.46458 5.8574 2.33372 6.29616 2.26829 6.75686C2.18105 7.19561 2.15924 7.65631 2.15924 8.117V9.93784C2.15924 10.0475 2.20286 10.1353 2.26829 10.2011C2.2901 10.223 2.31191 10.223 2.31191 10.245Z" fill="white"/>
</svg>
