<svg width="27" height="25" viewBox="0 0 27 25" fill="none" xmlns="http://www.w3.org/2000/svg">
<path d="M0.476534 11.6952L6.69788 14.1043L9.10593 22.1393C9.26 22.6539 9.86652 22.8441 10.2691 22.5026L13.737 19.5694C14.1005 19.2621 14.6183 19.2468 14.9981 19.5329L21.253 24.2445C21.6836 24.5693 22.2937 24.3245 22.4017 23.7845L26.9837 0.916929C27.1016 0.327149 26.5431 -0.164864 26.0018 0.0523354L0.469244 10.2718C-0.160847 10.5239 -0.155357 11.4495 0.476534 11.6952ZM8.71784 12.8219L20.8767 5.05211C21.0952 4.91289 21.32 5.21945 21.1324 5.40004L11.0978 15.0778C10.7451 15.4185 10.5176 15.8743 10.4531 16.3691L10.1113 18.9974C10.066 19.3483 9.59094 19.3831 9.49761 19.0435L8.18297 14.2509C8.0324 13.7042 8.25182 13.1203 8.71784 12.8219Z" fill="#2B2B2B"/>
</svg>
