<svg width="27" height="23" viewBox="0 0 27 23" fill="none" xmlns="http://www.w3.org/2000/svg">
<path d="M26.9996 2.72285C25.9956 3.18462 24.9257 3.49069 23.8103 3.63931C24.9578 2.921 25.8336 1.79223 26.2453 0.431692C25.1754 1.10046 23.9942 1.57285 22.7353 1.83646C21.7194 0.702385 20.2716 0 18.6921 0C15.6276 0 13.1604 2.60785 13.1604 5.80485C13.1604 6.26485 13.1976 6.70715 13.2887 7.12823C8.68688 6.89292 4.61495 4.58054 1.87951 1.058C1.40195 1.92669 1.12182 2.921 1.12182 3.99138C1.12182 6.00123 2.10901 7.78285 3.58051 8.81431C2.6912 8.79661 1.81876 8.52592 1.07963 8.09954C1.07963 8.11723 1.07963 8.14023 1.07963 8.16323C1.07963 10.9834 2.99832 13.3258 5.51438 13.8655C5.06382 13.9946 4.57276 14.0565 4.06313 14.0565C3.70876 14.0565 3.35101 14.0353 3.0152 13.9575C3.73238 16.2557 5.76751 17.9453 8.18738 18.0002C6.30413 19.5447 3.91295 20.4753 1.32432 20.4753C0.870384 20.4753 0.435009 20.4541 -0.000366211 20.3957C2.45157 22.0535 5.35745 23 8.49113 23C18.6769 23 24.2456 14.1538 24.2456 6.486C24.2456 6.22946 24.2372 5.98177 24.2254 5.73585C25.3239 4.91846 26.247 3.89762 26.9996 2.72285Z" fill="#2B2B2B"/>
</svg>
