<svg width="35" height="35" viewBox="0 0 35 35" fill="none" xmlns="http://www.w3.org/2000/svg">
<path d="M27.602 10.1169C27.602 4.53841 23.0657 0 17.4904 0C11.9148 0 7.37881 4.53841 7.37881 10.1169C7.37881 13.5722 9.11957 16.6281 11.769 18.4539C9.29527 19.3081 7.02766 20.719 5.12268 22.625C1.81927 25.9301 0 30.3248 0 34.9989H2.73277C2.73277 26.8575 9.35295 20.2338 17.4904 20.2338C23.0657 20.2338 27.602 15.6954 27.602 10.1169ZM17.4904 17.4996C13.4217 17.4996 10.1116 14.1878 10.1116 10.1169C10.1116 6.04604 13.4217 2.73421 17.4904 2.73421C21.5588 2.73421 24.8689 6.04604 24.8689 10.1169C24.8689 14.1878 21.5588 17.4996 17.4904 17.4996ZM35 25.1556L28.5681 31.5909L26.6356 29.6574L29.837 26.4543H27.4669C24.1925 26.4543 21.5263 29.1199 21.5236 32.3959L21.5212 35L18.7884 34.9979L18.7906 32.3935C18.7946 27.6109 22.6868 23.7198 27.4669 23.7198H29.7003L26.6356 20.6535L28.5681 18.7203L35 25.1556Z" fill="white"/>
</svg>
