<svg width="21" height="21" viewBox="0 0 21 21" fill="none" xmlns="http://www.w3.org/2000/svg">
<path d="M13.8064 14.7242C14.0613 14.8077 14.581 14.8812 15.2429 15.0306C15.2429 15.0306 18.0144 15.4121 18.9993 16.1594C20.3557 17.1885 20.4226 19.9471 20.4226 19.9471H0.578918C0.578918 19.9471 0.466973 17.1362 2.16085 16.1594C4.13174 15.0223 6.00457 14.9137 6.57818 14.7242L6.588 14.721C7.12039 14.5441 7.68783 14.3556 7.68783 13.6039C7.68783 12.8483 7.69681 12.7498 7.51541 12.6488C7.16896 12.4542 6.96304 12.1537 6.9181 11.9199C6.83394 11.4841 6.78981 10.2636 6.68032 10.1074C6.57001 9.94966 6.37309 10.0841 6.30772 9.72675C6.24153 9.36859 6.24153 9.05469 6.17616 8.92111C6.11079 8.7867 5.88037 7.92094 6.02336 7.6229C6.1492 7.35741 6.37881 7.496 6.39515 7.33153C6.42293 7.06354 5.93266 4.81526 6.26359 3.86268C6.6076 2.8717 6.98184 2.73478 7.33238 2.5102C7.68292 2.28646 7.90681 1.71374 8.73945 1.28796C9.57209 0.863019 10.7978 1.1093 11.2145 1.28796C11.6312 1.46746 13.2957 1.93665 13.5367 2.80992C13.54 2.82244 13.9339 3.32252 14.121 3.86268C14.4519 4.81526 13.9616 7.06354 13.9902 7.33153C14.0058 7.496 14.2354 7.35741 14.362 7.6229C14.5042 7.92094 14.2738 8.7867 14.2084 8.92111C14.143 9.05469 14.143 9.36859 14.0777 9.72675C14.0115 10.0841 13.8146 9.94966 13.7051 10.1074C13.5956 10.2636 13.5506 11.4841 13.4665 11.9199C13.4215 12.1537 13.2164 12.4542 12.8692 12.6488C12.6878 12.7498 12.6976 12.8483 12.6976 13.6039C12.6976 14.3553 13.2646 14.544 13.796 14.7208L13.8064 14.7242Z" fill="#A9A9A9"/>
<path d="M13.8064 14.7242L13.6485 15.1987L13.6508 15.1994L13.8064 14.7242ZM13.796 14.7208L13.9539 14.2464L13.9538 14.2463L13.796 14.7208ZM12.8692 12.6488L13.1124 13.0856L13.1135 13.085L12.8692 12.6488ZM13.4665 11.9199L12.9755 11.8251L12.9755 11.8255L13.4665 11.9199ZM13.7051 10.1074L14.1144 10.3946L14.1159 10.3925L13.7051 10.1074ZM14.0777 9.72675L14.5693 9.81782L14.5695 9.81652L14.0777 9.72675ZM14.2084 8.92111L14.6575 9.14089L14.6581 9.13979L14.2084 8.92111ZM14.362 7.6229L14.8133 7.40762L14.8133 7.40761L14.362 7.6229ZM13.9902 7.33153L14.4881 7.28454L14.4874 7.27847L13.9902 7.33153ZM14.121 3.86268L13.6485 4.02635L13.6487 4.02676L14.121 3.86268ZM13.5367 2.80992L14.0206 2.68364L14.0187 2.67688L13.5367 2.80992ZM11.2145 1.28796L11.4123 0.828749L11.4115 0.828416L11.2145 1.28796ZM8.73945 1.28796L8.51216 0.84261L8.51181 0.842791L8.73945 1.28796ZM7.33238 2.5102L7.06337 2.08874L7.06266 2.08919L7.33238 2.5102ZM6.26359 3.86268L6.7359 4.02676L6.73594 4.02665L6.26359 3.86268ZM6.39515 7.33153L5.89781 7.27997L5.8976 7.28209L6.39515 7.33153ZM6.02336 7.6229L6.47417 7.83918L6.47518 7.83705L6.02336 7.6229ZM6.17616 8.92111L5.72652 9.13979L5.72705 9.14089L6.17616 8.92111ZM6.30772 9.72675L6.79955 9.63677L6.79939 9.63589L6.30772 9.72675ZM6.68032 10.1074L6.27053 10.3939L6.27096 10.3945L6.68032 10.1074ZM6.9181 11.9199L7.40911 11.8255L7.40903 11.8251L6.9181 11.9199ZM7.51541 12.6488L7.27063 13.0848L7.27215 13.0856L7.51541 12.6488ZM6.588 14.721L6.43037 14.2465H6.43037L6.588 14.721ZM6.57818 14.7242L6.73504 15.199L6.73581 15.1987L6.57818 14.7242ZM2.16085 16.1594L2.41063 16.5925L2.41072 16.5925L2.16085 16.1594ZM0.578918 19.9471L0.0793143 19.967L0.0984341 20.4471H0.578918V19.9471ZM20.4226 19.9471V20.4471H20.9349L20.9225 19.935L20.4226 19.9471ZM18.9993 16.1594L19.3015 15.761L18.9993 16.1594ZM14.3654 15.7192C14.7401 15.6964 15.0867 15.6069 15.3971 15.5062L15.0886 14.555C14.8173 14.643 14.5608 14.7055 14.3047 14.7211L14.3654 15.7192ZM15.353 14.5429C15.013 14.4661 14.709 14.4088 14.4674 14.3619C14.212 14.3123 14.0533 14.2789 13.962 14.2491L13.6508 15.1994C13.8145 15.253 14.043 15.2981 14.2767 15.3435C14.5241 15.3916 14.8109 15.4457 15.1328 15.5184L15.353 14.5429ZM13.9643 14.2498L13.9539 14.2464L13.6381 15.1952L13.6485 15.1987L13.9643 14.2498ZM13.9538 14.2463C13.6684 14.1514 13.4831 14.084 13.356 13.9843C13.2684 13.9157 13.1976 13.8256 13.1976 13.6039H12.1976C12.1976 14.1336 12.4102 14.5136 12.739 14.7713C13.0282 14.998 13.3921 15.1134 13.6381 15.1952L13.9538 14.2463ZM13.1976 13.6039C13.1976 13.411 13.197 13.2699 13.1988 13.1583C13.2007 13.0435 13.205 12.9865 13.2095 12.9567C13.2136 12.9305 13.212 12.9687 13.1759 13.0205C13.1383 13.0744 13.0971 13.0941 13.1124 13.0856L12.6259 12.2119C12.5505 12.2539 12.4425 12.3239 12.3557 12.4483C12.2705 12.5705 12.2373 12.6996 12.2211 12.805C12.1934 12.9858 12.1976 13.2563 12.1976 13.6039H13.1976ZM13.1135 13.085C13.5647 12.8323 13.8798 12.4185 13.9575 12.0143L12.9755 11.8255C12.9709 11.8493 12.9492 11.9116 12.8868 11.9917C12.827 12.0684 12.7398 12.1481 12.6248 12.2125L13.1135 13.085ZM13.9574 12.0147C14.0056 11.7651 14.0409 11.31 14.0741 10.9553C14.0918 10.7659 14.1093 10.5966 14.1282 10.4675C14.1377 10.4025 14.1462 10.3574 14.1529 10.3296C14.1649 10.2797 14.1607 10.3285 14.1144 10.3945L13.2957 9.82035C13.222 9.92542 13.1925 10.0466 13.1808 10.0949C13.1637 10.1655 13.1501 10.2448 13.1387 10.3229C13.1157 10.4803 13.0962 10.6726 13.0784 10.8623C13.0407 11.2659 13.0115 11.6389 12.9755 11.8251L13.9574 12.0147ZM14.1159 10.3925C14.0761 10.4498 14.0237 10.4797 13.9995 10.4902C13.9946 10.4923 13.9927 10.4927 14.014 10.4855C14.0289 10.4804 14.0664 10.468 14.1061 10.4509C14.1988 10.4107 14.3141 10.3411 14.4098 10.2109C14.4985 10.0903 14.5443 9.95272 14.5693 9.81782L13.586 9.63568C13.5779 9.67944 13.5743 9.65909 13.604 9.61869C13.6407 9.56873 13.6876 9.54231 13.7092 9.533C13.7132 9.53125 13.7144 9.53112 13.6933 9.53827C13.6785 9.54328 13.6406 9.55579 13.6008 9.57311C13.5068 9.61398 13.3888 9.68616 13.2943 9.82239L14.1159 10.3925ZM14.5695 9.81652C14.606 9.61699 14.6247 9.42612 14.6397 9.29771C14.6477 9.22871 14.6542 9.18109 14.6608 9.14622C14.6684 9.10615 14.6708 9.11371 14.6575 9.14089L13.7593 8.70133C13.7133 8.79529 13.6912 8.89219 13.6784 8.95973C13.6646 9.03249 13.6547 9.11077 13.6464 9.18172C13.6287 9.33319 13.6147 9.47835 13.5858 9.63698L14.5695 9.81652ZM14.6581 9.13979C14.6972 9.05931 14.7342 8.93839 14.7624 8.83508C14.7945 8.71723 14.8285 8.57229 14.8554 8.42074C14.8819 8.27104 14.9037 8.10317 14.9071 7.94308C14.9101 7.80028 14.9013 7.59203 14.8133 7.40762L13.9107 7.83817C13.8939 7.80279 13.9096 7.81453 13.9073 7.92208C13.9054 8.01234 13.8922 8.12519 13.8707 8.24599C13.8496 8.36493 13.8226 8.48027 13.7976 8.57186C13.7687 8.678 13.7523 8.71571 13.7588 8.70243L14.6581 9.13979ZM14.8133 7.40761C14.7467 7.26808 14.6527 7.15584 14.5338 7.07502C14.4211 6.9984 14.312 6.96856 14.2576 6.95473C14.245 6.95154 14.2312 6.94823 14.2254 6.94681C14.2173 6.94484 14.2153 6.9443 14.2154 6.94432C14.2157 6.9444 14.2223 6.94622 14.2325 6.94999C14.2427 6.95381 14.2596 6.96075 14.2801 6.97212C14.3241 6.9966 14.381 7.03992 14.4261 7.1101C14.4702 7.17869 14.4842 7.24377 14.488 7.28454L13.4925 7.37852C13.5002 7.46041 13.5247 7.55714 13.5848 7.65066C13.6459 7.74578 13.7244 7.80733 13.7941 7.84609C13.8579 7.88158 13.917 7.89925 13.9472 7.90767C13.9637 7.91227 13.9789 7.91601 13.9886 7.91837C14.0006 7.92128 14.0051 7.92235 14.0113 7.92394C14.0321 7.9292 14.0051 7.92477 13.9715 7.90197C13.9319 7.87498 13.914 7.84497 13.9107 7.83819L14.8133 7.40761ZM14.4874 7.27847C14.4908 7.30987 14.4866 7.30291 14.4981 7.20057C14.5072 7.11925 14.5218 7.01222 14.5403 6.87956C14.5767 6.61878 14.6262 6.27438 14.6661 5.90782C14.7058 5.54189 14.7372 5.14263 14.7361 4.76741C14.7351 4.4016 14.7036 4.016 14.5933 3.69859L13.6487 4.02676C13.7039 4.18565 13.7352 4.4383 13.7361 4.77033C13.7371 5.09295 13.7098 5.45111 13.6719 5.79983C13.6341 6.14791 13.5871 6.47537 13.5499 6.74128C13.5317 6.87196 13.5152 6.992 13.5044 7.08864C13.4958 7.16427 13.4826 7.28619 13.4931 7.38459L14.4874 7.27847ZM14.5934 3.69901C14.4821 3.37764 14.3147 3.081 14.183 2.87196C14.1159 2.76538 14.0553 2.67725 14.0115 2.61533C13.9899 2.58463 13.9719 2.55978 13.9611 2.54478C13.9584 2.54096 13.9563 2.53806 13.9547 2.5358C13.953 2.53339 13.9524 2.53262 13.9526 2.53286C13.9527 2.53302 13.9534 2.53396 13.9544 2.53546C13.9553 2.53678 13.9573 2.53982 13.9599 2.54397C13.962 2.54719 13.9677 2.55622 13.9745 2.56844C13.9779 2.57455 13.9838 2.58557 13.9904 2.59982C13.9953 2.61029 14.0095 2.64138 14.0205 2.68366L13.0529 2.93618C13.064 2.97865 13.0783 3.01 13.0834 3.02078C13.0901 3.03534 13.0962 3.04674 13.0999 3.05328C13.1071 3.06636 13.1135 3.0765 13.1164 3.08104C13.1227 3.09086 13.1284 3.09912 13.131 3.10288C13.1369 3.11136 13.1438 3.12103 13.1491 3.12841C13.1612 3.14527 13.176 3.16576 13.1946 3.19214C13.2315 3.24439 13.2817 3.31738 13.3368 3.40491C13.4497 3.58409 13.5727 3.80756 13.6485 4.02635L14.5934 3.69901ZM14.0187 2.67688C13.9224 2.32786 13.6952 2.05568 13.4575 1.85047C13.2175 1.64328 12.9335 1.47563 12.6649 1.34146C12.3939 1.20613 12.1215 1.09653 11.8966 1.01121C11.6523 0.918517 11.5041 0.868283 11.4123 0.82875L11.0167 1.74718C11.1333 1.79739 11.3493 1.87312 11.5419 1.94617C11.7538 2.0266 11.9907 2.12253 12.2181 2.23609C12.4478 2.35082 12.6512 2.47542 12.8041 2.60742C12.9593 2.7414 13.0306 2.85534 13.0548 2.94296L14.0187 2.67688ZM11.4115 0.828416C11.1414 0.71263 10.6736 0.596483 10.1661 0.562715C9.66073 0.52908 9.04259 0.571903 8.51216 0.84261L8.96674 1.73332C9.26896 1.57908 9.67997 1.53257 10.0997 1.56051C10.5175 1.58831 10.8708 1.68464 11.0175 1.74751L11.4115 0.828416ZM8.51181 0.842791C8.02467 1.0919 7.71407 1.38658 7.48508 1.6386C7.42939 1.69989 7.37846 1.75874 7.33364 1.81065C7.28739 1.86422 7.24934 1.90839 7.21272 1.94875C7.13755 2.0316 7.0937 2.06938 7.06337 2.08874L7.60139 2.93167C7.74634 2.83915 7.86192 2.72144 7.95334 2.62068C8.00002 2.56923 8.04705 2.51455 8.09054 2.46419C8.13546 2.41216 8.17894 2.36199 8.22518 2.31109C8.40393 2.11437 8.6216 1.90981 8.9671 1.73314L8.51181 0.842791ZM7.06266 2.08919C6.93245 2.17261 6.67003 2.31002 6.43644 2.55112C6.1909 2.80455 5.97923 3.15716 5.79124 3.69871L6.73594 4.02665C6.89196 3.57722 7.03941 3.36588 7.15463 3.24696C7.2818 3.11571 7.38177 3.07237 7.6021 2.93121L7.06266 2.08919ZM5.79128 3.69859C5.68101 4.016 5.6495 4.4016 5.64845 4.76742C5.64736 5.14266 5.67882 5.54194 5.71862 5.90789C5.7585 6.2745 5.80807 6.61888 5.84461 6.87977C5.86319 7.01247 5.87785 7.11957 5.88709 7.201C5.8987 7.30327 5.89462 7.31077 5.89781 7.27997L6.89248 7.38309C6.90262 7.2853 6.8893 7.16392 6.88071 7.08821C6.86975 6.99167 6.85324 6.87172 6.83494 6.74107C6.79771 6.47526 6.75061 6.14779 6.71276 5.79976C6.67483 5.45107 6.64751 5.09292 6.64844 4.77031C6.6494 4.4383 6.68071 4.18565 6.7359 4.02676L5.79128 3.69859ZM5.8976 7.28209C5.90167 7.24116 5.91601 7.17636 5.96016 7.10828C6.00528 7.03873 6.06195 6.99589 6.10561 6.97171C6.12591 6.96047 6.14268 6.95361 6.15281 6.94985C6.16282 6.94612 6.16933 6.94433 6.16958 6.94427C6.1696 6.94426 6.1676 6.94481 6.15949 6.94679C6.15359 6.94822 6.1398 6.95152 6.1272 6.95473C6.07267 6.96858 5.96339 6.99848 5.85061 7.07536C5.73163 7.15647 5.63775 7.26906 5.57154 7.40874L6.47518 7.83705C6.47189 7.844 6.4539 7.87435 6.41388 7.90163C6.38005 7.92469 6.35278 7.92918 6.37343 7.92394C6.37962 7.92237 6.38419 7.92129 6.39608 7.91839C6.40576 7.91604 6.42095 7.91231 6.43744 7.90773C6.46764 7.89933 6.52648 7.88174 6.59011 7.8465C6.65955 7.80804 6.73783 7.74697 6.79912 7.65248C6.85945 7.55947 6.88455 7.46302 6.8927 7.38097L5.8976 7.28209ZM5.57256 7.40661C5.48401 7.59118 5.47495 7.79968 5.47782 7.94262C5.48104 8.10284 5.50277 8.27081 5.52928 8.42056C5.55613 8.57217 5.59007 8.71715 5.62222 8.83503C5.6504 8.93837 5.68737 9.05929 5.72652 9.13979L6.62581 8.70243C6.63227 8.71572 6.61592 8.67802 6.58698 8.57191C6.56201 8.48035 6.53502 8.36506 6.51396 8.24617C6.49258 8.12542 6.47943 8.01267 6.47762 7.92254C6.47546 7.81512 6.49121 7.80364 6.47416 7.83918L5.57256 7.40661ZM5.72705 9.14089C5.71376 9.11373 5.71615 9.10618 5.72378 9.14633C5.73042 9.18128 5.73693 9.22895 5.74505 9.29807C5.76017 9.42677 5.7791 9.61769 5.81604 9.81761L6.79939 9.63589C6.77015 9.47765 6.75598 9.33254 6.73822 9.18136C6.72989 9.11053 6.72001 9.03229 6.70619 8.95962C6.69337 8.89216 6.67124 8.79528 6.62527 8.70133L5.72705 9.14089ZM5.81588 9.81673C5.84055 9.95156 5.88606 10.0893 5.97462 10.2102C6.07025 10.3408 6.18578 10.4107 6.27871 10.4509C6.31844 10.468 6.356 10.4804 6.37106 10.4855C6.39246 10.4928 6.39064 10.4925 6.38588 10.4904C6.36214 10.4801 6.31022 10.4507 6.27053 10.3939L7.09011 9.82096C6.99527 9.6853 6.87736 9.61353 6.78363 9.5729C6.74388 9.55567 6.70607 9.54319 6.69131 9.5382C6.67023 9.53107 6.67149 9.53121 6.67562 9.533C6.69736 9.54239 6.74451 9.569 6.78139 9.61936C6.81118 9.66004 6.80757 9.6806 6.79955 9.63677L5.81588 9.81673ZM6.27096 10.3945C6.22458 10.3284 6.2204 10.2795 6.23244 10.3294C6.23912 10.3571 6.24758 10.4022 6.25705 10.4673C6.27584 10.5963 6.29325 10.7656 6.31086 10.9551C6.34381 11.3097 6.37894 11.765 6.42717 12.0147L7.40903 11.8251C7.3731 11.6391 7.34408 11.2662 7.30657 10.8625C7.28894 10.6729 7.26952 10.4805 7.24661 10.3232C7.23524 10.245 7.22163 10.1658 7.20461 10.0951C7.19295 10.0468 7.16344 9.92552 7.08968 9.82035L6.27096 10.3945ZM6.42709 12.0143C6.50489 12.419 6.82119 12.8324 7.27063 13.0847L7.7602 12.2128C7.64541 12.1483 7.55793 12.0684 7.49788 11.9915C7.4352 11.9111 7.4136 11.8489 7.40911 11.8255L6.42709 12.0143ZM7.27215 13.0856C7.28762 13.0942 7.24671 13.0746 7.20923 13.0211C7.17319 12.9695 7.17151 12.9314 7.17555 12.9575C7.18014 12.987 7.18452 13.044 7.18647 13.1586C7.18836 13.2701 7.18783 13.4111 7.18783 13.6039H8.18783C8.18783 13.256 8.19185 12.9855 8.16374 12.8042C8.14735 12.6986 8.11391 12.5697 8.02853 12.4477C7.94172 12.3236 7.83391 12.2538 7.75868 12.2119L7.27215 13.0856ZM7.18783 13.6039C7.18783 13.8257 7.11695 13.9157 7.02929 13.9843C6.90193 14.0841 6.71632 14.1515 6.43037 14.2465L6.74563 15.1955C6.99208 15.1136 7.35637 14.9983 7.64583 14.7717C7.97498 14.5139 8.18783 14.1338 8.18783 13.6039H7.18783ZM6.43037 14.2465L6.42055 14.2497L6.73581 15.1987L6.74563 15.1955L6.43037 14.2465ZM6.42133 14.2495C6.31734 14.2838 6.13435 14.3194 5.82971 14.3773C5.54243 14.432 5.1815 14.5009 4.77433 14.6009C3.95878 14.801 2.94982 15.1269 1.91099 15.7263L2.41072 16.5925C3.34277 16.0547 4.25567 15.7578 5.01266 15.5721C5.39176 15.479 5.72976 15.4143 6.01656 15.3597C6.286 15.3085 6.55222 15.2594 6.73504 15.199L6.42133 14.2495ZM1.91108 15.7262C0.878987 16.3214 0.439929 17.4432 0.246644 18.3108C0.147374 18.7564 0.105769 19.1663 0.0887123 19.4641C0.0801503 19.6135 0.0776912 19.7362 0.077419 19.8229C0.0772828 19.8662 0.077694 19.9007 0.0781698 19.9251C0.0784078 19.9373 0.0786621 19.947 0.0788728 19.954C0.0789781 19.9575 0.0790726 19.9604 0.0791487 19.9626C0.0791867 19.9636 0.0792201 19.9646 0.0792481 19.9653C0.079262 19.9657 0.0792746 19.966 0.0792857 19.9663C0.0792913 19.9664 0.0792984 19.9666 0.0793012 19.9667C0.0793079 19.9669 0.0793143 19.967 0.578918 19.9471C1.07852 19.9272 1.07853 19.9274 1.07853 19.9275C1.07853 19.9275 1.07854 19.9277 1.07854 19.9277C1.07855 19.9278 1.07855 19.9279 1.07855 19.9279C1.07855 19.928 1.07855 19.9279 1.07854 19.9276C1.07852 19.9271 1.07848 19.9259 1.07842 19.9241C1.07832 19.9204 1.07815 19.9142 1.07798 19.9056C1.07764 19.8883 1.0773 19.8614 1.07741 19.826C1.07764 19.7551 1.07967 19.6506 1.08708 19.5213C1.10196 19.2614 1.13824 18.9075 1.22272 18.5283C1.39693 17.7462 1.74884 16.9741 2.41063 16.5925L1.91108 15.7262ZM0.578918 20.4471H20.4226V19.4471H0.578918V20.4471ZM19.3015 15.761C18.9933 15.5272 18.5775 15.3427 18.1636 15.1963C17.7413 15.047 17.2829 14.9244 16.8645 14.8276C16.4448 14.7306 16.0579 14.6577 15.7762 14.6092C15.6352 14.5849 15.52 14.5665 15.4395 14.5542C15.3993 14.5481 15.3677 14.5434 15.3459 14.5403C15.3351 14.5387 15.3266 14.5375 15.3208 14.5367C15.3178 14.5362 15.3155 14.5359 15.3139 14.5357C15.3131 14.5356 15.3125 14.5355 15.312 14.5354C15.3117 14.5354 15.3115 14.5354 15.3114 14.5353C15.3113 14.5353 15.3112 14.5353 15.3112 14.5353C15.3111 14.5353 15.3111 14.5353 15.2429 15.0306C15.1747 15.526 15.1747 15.526 15.1746 15.526C15.1746 15.526 15.1746 15.5259 15.1746 15.5259C15.1746 15.526 15.1747 15.526 15.1748 15.526C15.175 15.526 15.1753 15.526 15.1759 15.5261C15.1769 15.5263 15.1786 15.5265 15.181 15.5268C15.1857 15.5275 15.1929 15.5285 15.2025 15.5299C15.2218 15.5327 15.2508 15.537 15.2883 15.5427C15.3632 15.5542 15.4722 15.5715 15.6064 15.5946C15.8752 15.641 16.2427 15.7102 16.6391 15.8019C17.0367 15.8939 17.4558 16.0068 17.8302 16.1391C18.2129 16.2745 18.5128 16.4179 18.6971 16.5577L19.3015 15.761ZM20.4226 19.9471C20.9225 19.935 20.9225 19.9349 20.9224 19.9347C20.9224 19.9347 20.9224 19.9345 20.9224 19.9344C20.9224 19.9342 20.9224 19.9339 20.9224 19.9336C20.9224 19.9329 20.9224 19.9321 20.9224 19.9311C20.9223 19.9291 20.9222 19.9265 20.9221 19.9232C20.9219 19.9166 20.9216 19.9075 20.9211 19.8959C20.9202 19.8726 20.9187 19.8395 20.9162 19.7977C20.9114 19.7142 20.903 19.5954 20.8885 19.4503C20.8596 19.161 20.806 18.7627 20.7071 18.3282C20.5164 17.4903 20.1292 16.389 19.3015 15.761L18.6971 16.5577C19.2258 16.9588 19.5503 17.7514 19.7321 18.5502C19.8195 18.934 19.8674 19.2896 19.8934 19.5498C19.9064 19.6794 19.9138 19.7841 19.9179 19.8555C19.92 19.8911 19.9212 19.9183 19.9219 19.936C19.9223 19.9448 19.9225 19.9512 19.9226 19.9552C19.9227 19.9571 19.9227 19.9585 19.9227 19.9592C19.9228 19.9595 19.9228 19.9597 19.9228 19.9597C19.9228 19.9597 19.9228 19.9597 19.9228 19.9596C19.9228 19.9596 19.9228 19.9595 19.9228 19.9595C19.9228 19.9594 19.9227 19.9593 20.4226 19.9471Z" fill="#A9A9A9"/>
</svg>
