<svg width="27" height="16" viewBox="0 0 27 16" fill="none" xmlns="http://www.w3.org/2000/svg">
<path fill-rule="evenodd" clip-rule="evenodd" d="M23.237 9.79239C24.1326 10.6737 25.0779 11.503 25.8812 12.4732C26.236 12.9043 26.572 13.3493 26.829 13.8496C27.1931 14.5609 26.8633 15.3436 26.2305 15.3861L22.2971 15.3843C21.2826 15.4692 20.4733 15.0575 19.7928 14.3584C19.2482 13.7993 18.7439 13.2042 18.2202 12.6263C18.0055 12.39 17.7808 12.1678 17.5124 11.9921C16.9754 11.6407 16.5093 11.7483 16.2025 12.3128C15.89 12.8869 15.8191 13.5226 15.7884 14.1625C15.7462 15.096 15.4663 15.3415 14.5359 15.3842C12.5475 15.4787 10.6605 15.1755 8.90745 14.1645C7.36193 13.2733 6.16344 12.015 5.1203 10.5906C3.08926 7.81689 1.5339 4.76905 0.135993 1.63582C-0.178664 0.929901 0.0514516 0.550966 0.824211 0.537554C2.10741 0.512429 3.39044 0.514218 4.67514 0.535766C5.19668 0.543456 5.54194 0.844958 5.74331 1.34156C6.43756 3.06214 7.28706 4.69913 8.35336 6.21648C8.63732 6.62045 8.92687 7.02442 9.3392 7.30875C9.79535 7.62358 10.1427 7.51923 10.3572 7.00707C10.4934 6.68232 10.553 6.33253 10.5837 5.98472C10.6854 4.78809 10.6988 3.59353 10.5205 2.40111C10.411 1.65692 9.99513 1.17516 9.25839 1.03434C8.88243 0.962537 8.93841 0.821532 9.12044 0.605241C9.43661 0.232207 9.73396 0 10.3267 0H14.7721C15.472 0.139217 15.6274 0.456099 15.7232 1.16586L15.727 6.14289C15.7194 6.41766 15.8632 7.23302 16.3542 7.41488C16.7472 7.54436 17.0062 7.22747 17.242 6.97631C18.3063 5.83772 19.066 4.49214 19.7446 3.0988C20.0458 2.48614 20.3047 1.84988 20.5557 1.21415C20.7416 0.742401 21.0334 0.510283 21.5606 0.520565L25.839 0.52441C25.9659 0.52441 26.0943 0.526288 26.2171 0.547479C26.9381 0.671317 27.1356 0.983907 26.913 1.69349C26.5621 2.80678 25.8795 3.73454 25.212 4.66658C24.4985 5.66166 23.7354 6.62268 23.0279 7.62367C22.3778 8.53774 22.4294 8.99849 23.237 9.79239Z" fill="#2B2B2B"/>
</svg>
